<?xml version="1.0" standalone="no"?>
<!DOCTYPE svg PUBLIC "-//W3C//DTD SVG 20010904//EN"
 "http://www.w3.org/TR/2001/REC-SVG-20010904/DTD/svg10.dtd">
<svg version="1.0" xmlns="http://www.w3.org/2000/svg"
 width="2048.000000pt" height="2048.000000pt" viewBox="0 0 2048.000000 2048.000000"
 preserveAspectRatio="xMidYMid meet">
<metadata>
Created by potrace 1.14, written by Peter Selinger 2001-2017
</metadata>
<g transform="translate(0.000000,2048.000000) scale(0.100000,-0.100000)"
fill="#000000" stroke="none">
<path d="M5008 12906 c-12 -16 -26 -23 -42 -22 -16 2 -23 -1 -19 -9 2 -7 0
-16 -6 -20 -6 -3 -11 -1 -11 5 0 6 -4 9 -10 5 -5 -3 -7 -12 -3 -20 3 -10 -1
-15 -12 -15 -11 0 -15 -5 -12 -14 3 -8 -1 -17 -9 -20 -8 -3 -13 -2 -10 3 4 5
-3 7 -13 4 -11 -3 -17 -11 -15 -18 4 -10 -1 -12 -18 -8 -19 5 -21 4 -12 -8 6
-8 14 -22 18 -33 5 -16 2 -18 -23 -14 -17 2 -28 1 -25 -3 2 -4 0 -10 -6 -14
-18 -11 -11 -25 13 -25 20 -1 20 -2 4 -11 -12 -7 -16 -17 -12 -30 5 -15 2 -19
-14 -19 -12 0 -21 -6 -21 -14 0 -10 9 -13 33 -10 24 4 28 2 17 -5 -10 -7 -11
-11 -2 -11 25 0 11 -18 -19 -24 -17 -3 -28 -10 -25 -15 4 -6 19 -6 39 0 41 12
41 12 23 -6 -8 -8 -19 -15 -25 -15 -6 0 -10 -12 -9 -26 2 -20 7 -24 22 -20 13
3 7 -8 -21 -37 -91 -94 -155 -228 -179 -376 -3 -18 -8 -43 -10 -55 -4 -21 -14
-128 -19 -215 -2 -25 -3 -51 -4 -57 -1 -6 -11 -12 -23 -12 -82 0 -218 -27
-315 -62 -31 -12 -53 -15 -53 -9 0 23 -81 178 -128 244 -62 88 -119 145 -191
194 -54 36 -175 91 -203 91 -7 0 -20 5 -28 10 -11 7 -6 8 17 4 27 -5 31 -4 28
12 -2 11 -4 23 -4 28 -1 4 -8 6 -16 2 -8 -3 -15 -1 -15 5 0 6 -4 8 -9 4 -5 -3
-13 0 -16 6 -5 6 0 10 11 9 38 -4 65 0 59 10 -3 5 -19 8 -36 6 -23 -3 -29 0
-25 11 3 8 6 17 6 19 0 2 7 4 15 4 8 0 15 6 15 14 0 9 -7 12 -19 9 -16 -4 -19
-1 -14 16 4 17 1 21 -18 21 -22 0 -22 0 -3 14 24 18 13 29 -26 28 -26 -1 -31
3 -30 21 3 38 1 41 -20 22 -20 -18 -21 -18 -14 0 6 14 4 17 -8 13 -9 -4 -21
-1 -27 5 -7 7 -16 13 -22 13 -5 1 -14 2 -20 3 -5 0 -7 5 -4 11 8 13 -28 0 -37
-14 -5 -7 -8 -4 -8 7 0 15 -28 24 -62 18 -5 0 -8 6 -8 15 0 14 -3 14 -15 4 -8
-7 -15 -19 -15 -26 0 -8 -4 -14 -10 -14 -5 0 -10 5 -10 10 0 6 -5 10 -11 10
-6 0 -9 -8 -7 -18 4 -13 -1 -18 -18 -20 -13 -1 -24 3 -24 8 0 6 -5 10 -11 10
-7 0 -8 -11 -3 -32 6 -30 5 -31 -10 -19 -21 18 -33 7 -16 -14 12 -14 10 -15
-16 -9 -28 6 -28 6 -9 -10 20 -17 20 -17 -2 -11 -14 4 -23 2 -23 -4 0 -6 -3
-10 -7 -10 -26 4 -35 -2 -24 -15 9 -11 9 -15 -1 -19 -10 -4 -10 -8 2 -17 12
-9 11 -10 -7 -5 -35 10 -28 -13 10 -30 17 -8 22 -12 10 -9 -49 12 -63 12 -63
3 0 -5 7 -12 15 -15 8 -4 12 -10 9 -15 -5 -8 10 -13 29 -10 5 1 6 -3 2 -9 -3
-6 -11 -8 -16 -5 -5 4 -9 -3 -9 -15 0 -12 -4 -19 -9 -16 -5 3 -8 -6 -8 -19 0
-21 3 -25 21 -20 12 4 16 3 11 -2 -6 -4 -11 -19 -10 -33 0 -22 4 -25 32 -24
18 0 30 -3 27 -8 -3 -4 -12 -8 -20 -8 -8 0 -14 -7 -14 -15 0 -9 6 -12 17 -8
11 4 14 3 9 -5 -4 -7 -3 -12 3 -12 5 0 12 6 14 13 4 7 6 6 6 -4 1 -9 -6 -20
-15 -23 -8 -3 -12 -10 -9 -16 4 -6 10 -8 15 -5 5 3 12 0 16 -6 5 -9 11 -6 21
7 13 18 13 17 11 -6 -2 -15 2 -24 8 -23 8 2 10 -6 6 -20 -5 -19 -3 -20 10 -9
19 15 48 6 48 -17 0 -14 2 -14 10 -1 8 12 10 12 10 1 0 -11 3 -11 17 0 9 8 18
13 20 12 1 -2 14 -3 28 -3 17 0 25 6 26 18 1 11 3 9 8 -7 4 -14 13 -27 20 -29
9 -3 11 0 6 8 -6 10 -4 12 8 7 11 -4 17 -1 17 7 0 8 10 13 23 12 32 -3 38 3
27 25 -7 13 -7 19 0 19 5 0 10 -6 10 -14 0 -8 5 -18 12 -22 7 -5 9 -2 5 9 -7
18 19 32 27 14 4 -7 4 -1 2 12 l-5 23 25 -23 c23 -22 35 -14 13 8 -9 9 -6 10
10 6 17 -4 24 -1 28 16 3 11 9 18 14 15 13 -8 11 10 -3 24 -21 21 14 14 91
-17 110 -45 191 -114 270 -231 41 -60 107 -185 113 -212 2 -11 -22 -33 -79
-71 -185 -125 -339 -300 -442 -507 -12 -25 -40 -67 -62 -95 -54 -68 -115 -197
-129 -274 -11 -63 -15 -224 -6 -240 3 -4 8 -22 11 -39 13 -77 89 -228 141
-279 20 -21 37 -54 30 -61 -3 -3 -6 -1 -6 5 0 6 -22 21 -50 34 -27 13 -50 27
-50 31 0 5 -5 8 -11 8 -6 0 -58 23 -116 50 -57 28 -128 60 -156 71 -29 11 -61
24 -72 29 -11 4 -33 13 -50 18 -21 6 -31 16 -33 33 -1 13 -7 49 -13 79 -38
185 -200 317 -276 224 -26 -32 -25 -78 3 -121 14 -22 13 -23 -13 -23 -16 1
-55 7 -88 14 -86 18 -159 15 -184 -8 -25 -23 -27 -63 -5 -94 13 -19 13 -22 0
-22 -44 0 -75 -89 -40 -115 15 -11 15 -14 0 -43 -24 -47 -8 -78 56 -107 64
-28 104 -35 226 -39 60 -1 92 1 92 8 0 7 3 8 8 1 11 -15 32 -17 32 -2 0 8 4 7
10 -3 9 -15 11 -13 14 13 0 6 10 12 21 12 11 0 34 13 50 28 48 45 62 50 75 27
6 -11 16 -20 22 -20 6 0 5 6 -3 17 -13 15 -12 15 9 2 12 -8 22 -17 22 -22 0
-4 4 -6 9 -2 5 3 17 -2 25 -11 9 -8 16 -13 16 -9 0 3 14 -2 31 -10 24 -13 29
-20 23 -38 l-7 -22 24 20 c18 15 20 16 10 2 -12 -16 -11 -17 10 -13 14 2 32
-4 44 -15 11 -10 25 -18 30 -18 6 -1 11 -5 11 -11 3 -23 5 -24 14 -10 6 10 10
11 10 2 0 -6 5 -11 12 -10 11 3 13 -1 17 -34 1 -9 4 -8 11 2 6 10 10 11 10 3
0 -7 7 -13 15 -13 8 0 15 -5 15 -10 0 -6 4 -9 8 -8 11 4 72 -49 65 -56 -4 -3
3 -6 15 -6 12 0 22 -5 22 -11 0 -5 4 -7 10 -4 6 4 7 -1 3 -11 -5 -13 -3 -15 8
-9 12 8 12 6 0 -8 -8 -10 -9 -17 -3 -17 6 0 14 5 17 10 3 6 11 10 18 10 6 0 5
-5 -4 -12 -24 -21 -55 -62 -40 -53 10 6 12 4 6 -6 -8 -12 -6 -12 8 0 9 7 14
18 10 25 -3 6 3 3 14 -7 11 -9 23 -14 26 -10 10 9 9 25 -1 19 -12 -7 -38 12
-29 21 5 4 12 1 17 -7 8 -12 10 -12 10 -1 0 8 12 1 29 -17 16 -16 32 -27 36
-24 4 4 5 0 3 -8 -2 -8 4 -14 12 -15 8 0 14 -9 13 -18 0 -12 4 -16 13 -13 7 3
24 -8 37 -24 14 -16 28 -26 31 -22 4 3 4 -2 0 -11 -3 -10 -3 -17 2 -16 5 1 16
1 24 0 12 -1 12 -3 2 -10 -17 -10 -14 -22 7 -38 10 -7 11 -12 4 -13 -11 0 -26
16 -29 33 -1 4 -2 10 -3 14 0 4 -6 2 -13 -5 -9 -9 -7 -17 8 -34 15 -18 15 -20
2 -9 -15 11 -18 11 -18 0 0 -9 -3 -10 -8 -3 -4 6 -19 10 -34 9 -21 -2 -28 3
-28 17 0 11 -4 17 -10 13 -5 -3 -7 -12 -3 -20 4 -13 -2 -17 -27 -17 -3 -1 -17
2 -32 6 -23 5 -27 3 -22 -11 5 -15 4 -16 -5 -3 -9 13 -11 13 -11 0 0 -12 -2
-13 -9 -1 -7 11 -9 11 -14 0 -4 -10 -6 -10 -6 -1 -1 6 -6 12 -12 12 -5 0 -7
-4 -4 -10 3 -5 1 -10 -5 -10 -7 0 -9 7 -6 17 4 10 4 14 0 11 -4 -4 -16 -3 -27
3 -15 9 -18 8 -12 -2 5 -8 4 -10 -3 -5 -8 5 -10 2 -6 -8 3 -9 2 -16 -2 -17 -5
0 -17 -2 -26 -4 -12 -2 -15 2 -11 13 4 14 3 14 -5 3 -6 -8 -8 -19 -6 -25 3 -7
-4 -12 -15 -12 -15 0 -17 3 -9 13 7 9 7 17 -3 29 -16 19 -20 55 -5 47 6 -3 6
0 -1 7 -10 11 -15 11 -29 -1 -14 -11 -16 -11 -10 -1 12 20 -26 -2 -45 -25 -13
-17 -13 -17 6 -3 19 14 19 14 5 -5 -14 -19 -14 -19 4 -5 12 9 17 10 12 3 -4
-7 -4 -13 1 -14 4 0 16 -2 26 -4 11 -2 15 1 10 8 -4 7 1 6 10 -2 17 -13 17
-15 0 -33 -15 -17 -15 -21 -3 -30 15 -10 3 -7 -40 10 -13 5 -13 4 0 -14 14
-18 14 -18 -3 -5 -15 12 -20 11 -35 -3 -10 -9 -22 -13 -27 -9 -4 5 -5 0 -2
-10 4 -10 3 -16 -2 -13 -5 3 -14 -1 -21 -9 -7 -8 -17 -12 -22 -9 -5 3 -16 -2
-23 -12 -8 -11 -15 -14 -15 -9 0 6 -5 3 -10 -5 -7 -11 -10 -11 -10 -2 0 7 -5
10 -10 7 -6 -4 -7 -12 -3 -18 4 -7 -5 -4 -19 5 -26 17 -27 17 -25 -2 1 -11 6
-19 12 -16 7 2 12 -2 12 -9 0 -8 -5 -13 -10 -12 -5 1 -12 -4 -15 -12 -3 -8 0
-11 7 -7 7 5 9 1 5 -8 -3 -9 -10 -13 -15 -10 -6 3 -16 0 -25 -6 -11 -10 -12
-16 -2 -27 9 -12 9 -14 -3 -13 -27 4 -39 0 -39 -15 0 -7 -7 -18 -16 -23 -8 -5
-17 -15 -18 -23 -6 -31 -19 -49 -30 -42 -6 3 -8 3 -4 -2 4 -4 2 -17 -4 -29 -7
-11 -13 -31 -15 -43 -2 -13 -4 -33 -6 -45 -1 -13 -6 -29 -10 -35 -5 -7 -7 -13
-5 -14 41 -10 62 -1 48 21 -7 10 -10 11 -10 3 0 -7 -5 -13 -11 -13 -6 0 -7 5
-2 13 4 6 8 18 10 26 1 8 10 21 19 30 17 15 17 15 4 -4 l-15 -20 24 20 c14 11
21 14 17 8 -4 -7 -2 -13 3 -13 6 0 11 5 11 11 0 5 5 7 11 3 8 -4 8 0 0 15 -7
11 -17 21 -24 21 -7 0 -6 4 3 10 13 9 13 10 0 10 -12 0 -13 2 -1 9 7 5 9 11 5
13 -5 3 -3 3 4 1 8 -2 10 2 6 10 -5 7 0 6 10 -3 16 -13 20 -12 33 5 16 22 21
23 35 3 8 -10 9 -9 5 3 -3 9 0 22 6 29 9 10 9 11 -3 5 -8 -5 -12 -5 -8 0 4 4
2 17 -4 29 -17 29 -18 46 -5 46 7 0 6 5 -3 11 -13 9 -13 10 0 6 8 -2 23 3 33
11 16 14 19 14 31 -3 13 -18 14 -18 24 1 6 10 12 14 12 9 0 -6 -5 -16 -12 -23
-7 -7 -8 -12 -2 -12 6 0 15 5 22 12 7 7 12 8 12 4 0 -5 7 -2 17 5 15 13 15 12
4 -9 -16 -29 -7 -41 10 -14 11 17 14 18 27 5 8 -8 21 -12 28 -9 7 3 16 1 19
-5 4 -5 11 -6 17 -3 6 4 8 2 4 -4 -3 -6 -2 -13 3 -16 5 -3 11 1 14 8 7 17 -16
39 -28 28 -5 -4 -5 -1 -1 6 6 11 12 10 27 -4 25 -23 49 -26 68 -11 11 9 13 9
8 0 -4 -6 -3 -14 3 -18 5 -3 10 -3 10 2 0 12 140 10 141 -2 0 -5 2 -21 3 -34
3 -22 2 -23 -10 -6 -7 10 -11 21 -9 26 3 4 0 11 -6 15 -7 4 -9 3 -6 -3 4 -6 0
-13 -8 -16 -10 -4 -12 -1 -8 11 4 13 2 13 -11 -3 -10 -11 -15 -15 -12 -9 3 6
-1 11 -9 11 -8 0 -12 -5 -9 -11 3 -6 -1 -3 -9 7 -10 12 -17 14 -22 8 -3 -6 -1
-11 5 -11 6 0 8 -5 5 -11 -5 -6 -12 -4 -22 8 -8 10 -12 13 -9 7 3 -6 -1 -11
-9 -11 -8 0 -12 3 -10 7 2 4 -2 7 -10 7 -11 0 -12 -4 -4 -13 7 -8 6 -14 -3
-17 -7 -3 -3 -4 9 -4 12 1 19 5 16 10 -3 5 4 4 15 -2 12 -6 24 -16 27 -21 3
-6 11 -10 18 -10 6 0 3 6 -7 13 -16 12 -16 14 -2 14 9 0 16 -5 16 -11 0 -5 7
-1 16 10 8 10 12 12 8 4 -7 -12 -5 -13 8 -3 15 13 28 8 28 -10 0 -5 -6 -7 -12
-4 -18 6 -48 -11 -44 -26 1 -6 1 -9 -1 -4 -3 4 -9 7 -14 7 -6 0 -7 -5 -3 -12
4 -6 3 -8 -4 -4 -17 10 -24 -10 -8 -23 11 -9 16 -9 22 0 5 9 11 7 22 -7 13
-18 14 -18 7 4 -4 13 -2 23 4 23 6 1 17 2 24 3 6 1 11 8 9 15 -1 7 2 10 8 6
28 -17 48 38 26 73 -2 4 -1 14 5 22 6 11 9 11 9 2 0 -10 5 -10 20 -2 11 6 25
8 31 4 6 -4 16 0 21 7 8 12 9 11 5 -1 -2 -9 -14 -14 -27 -12 -18 2 -20 0 -11
-12 6 -8 10 -19 9 -26 -2 -7 3 -15 11 -18 9 -3 11 0 6 8 -5 8 -4 11 3 6 6 -3
15 2 21 11 6 10 11 13 11 8 0 -6 -5 -16 -12 -23 -7 -7 -8 -12 -4 -12 5 0 3 -7
-4 -15 -7 -8 -9 -15 -5 -15 4 0 1 -10 -7 -22 -8 -13 -14 -31 -12 -41 1 -9 -2
-15 -6 -12 -5 3 -11 1 -15 -5 -3 -5 -2 -10 4 -10 10 0 10 -18 0 -35 -4 -5 -5
-18 -4 -27 2 -10 -1 -18 -6 -18 -5 0 -9 -5 -9 -11 0 -5 5 -7 12 -3 7 5 8 3 2
-7 -5 -8 -9 -27 -9 -44 -1 -17 -6 -29 -13 -28 -6 2 -9 -4 -6 -12 4 -8 11 -12
18 -8 6 4 5 -1 -3 -10 -7 -9 -10 -17 -5 -17 5 0 9 -15 10 -33 1 -63 15 -137
43 -225 11 -36 62 -144 71 -152 3 -3 16 -21 28 -40 74 -121 288 -309 442 -389
44 -23 48 -29 145 -228 55 -113 102 -206 105 -208 18 -11 66 -13 84 -3 18 9
243 196 284 235 22 21 45 30 92 37 113 17 213 41 305 71 55 19 116 37 135 40
31 6 71 31 120 73 8 7 51 39 95 71 191 137 323 340 358 546 14 85 15 165 3
267 -9 69 -9 68 37 168 6 14 20 35 32 48 11 13 19 27 18 30 0 4 4 5 10 3 24
-8 102 -7 113 1 7 5 22 11 34 13 27 5 39 15 20 15 -8 0 0 11 18 23 17 13 29
26 27 29 -3 3 1 11 10 18 8 7 15 19 15 27 0 8 5 11 11 7 8 -4 9 0 4 15 -3 12
-2 21 4 21 5 0 8 9 6 20 -2 11 0 20 5 20 5 0 7 8 5 18 -4 23 25 25 41 4 7 -10
13 -11 18 -4 3 6 2 13 -4 17 -5 3 -10 11 -10 18 0 6 7 2 15 -9 13 -17 14 -17
15 -2 0 10 -9 22 -19 28 -24 12 -34 13 -27 2 3 -5 -1 -9 -8 -9 -7 0 -13 6 -13
13 0 7 4 11 9 8 5 -3 6 9 3 28 -6 31 -5 32 9 13 8 -11 12 -24 9 -28 -3 -5 4
-4 16 2 25 14 27 19 5 17 -9 0 -19 5 -21 12 -3 6 3 12 12 12 9 0 13 5 10 10
-4 7 7 9 29 6 33 -4 35 -3 26 15 -13 23 -22 25 -14 4 8 -20 -10 -19 -27 2 -10
11 -10 14 -1 9 13 -8 17 6 5 18 -10 10 -13 37 -3 31 5 -3 11 -1 15 4 3 6 13 7
23 4 15 -6 16 -5 2 12 -8 10 -10 16 -3 12 9 -6 11 3 8 35 -3 29 -1 38 5 28 5
-8 12 -11 16 -7 4 3 1 13 -5 21 -11 13 -9 15 8 11 14 -2 21 1 21 11 0 8 -5 14
-11 14 -6 0 -9 7 -6 14 4 10 1 13 -8 9 -8 -3 -12 -10 -8 -16 4 -6 1 -7 -7 -2
-10 6 -9 11 5 22 14 9 15 13 4 13 -12 0 -12 2 1 10 8 5 11 10 6 10 -5 0 -2 8
6 18 13 15 15 28 8 50 -1 4 -3 14 -4 22 -1 17 -32 21 -60 7 -12 -6 -22 -5 -30
3 -8 8 -7 10 6 5 13 -5 16 -2 13 14 -2 11 1 23 6 26 5 4 7 11 3 16 -3 5 0 8 6
7 17 -4 44 38 31 47 -6 3 -11 -1 -11 -9 0 -8 -4 -17 -9 -20 -18 -12 2 35 21
49 12 8 17 18 13 26 -5 7 -4 10 3 5 6 -3 13 -2 17 4 3 5 1 10 -5 10 -7 0 -8 5
-3 13 4 6 8 17 8 22 1 6 7 9 14 7 8 -2 10 4 6 18 -4 11 -2 20 4 20 6 0 11 9
11 20 0 14 5 18 18 13 14 -6 15 -4 4 9 -10 12 -9 18 3 28 8 7 15 9 15 6 0 -4
9 -2 19 4 13 7 22 7 26 0 3 -5 12 -10 18 -10 7 1 1 10 -13 22 -14 12 -18 19
-8 15 9 -3 22 0 28 8 6 8 19 11 28 8 15 -6 16 -5 2 13 -8 10 -11 16 -6 12 12
-10 68 20 61 32 -4 6 -11 10 -16 10 -6 0 -7 -4 -4 -10 4 -6 -1 -7 -11 -3 -12
4 -15 3 -10 -5 4 -7 2 -12 -4 -12 -7 0 -10 6 -7 13 3 8 -1 14 -8 14 -8 0 -11
-7 -7 -15 4 -12 1 -14 -13 -9 -16 7 -16 5 -4 -10 9 -11 10 -14 1 -9 -7 4 -15
1 -18 -8 -3 -9 -10 -16 -16 -16 -5 0 -6 5 -3 10 3 6 -2 10 -12 11 -11 0 -13 3
-5 6 6 2 10 8 7 13 -3 4 2 13 10 20 7 6 11 18 8 26 -3 7 2 16 10 20 9 3 13 13
10 22 -4 13 -3 14 5 4 7 -11 10 -10 16 3 9 23 8 27 -5 19 -7 -4 -5 6 4 22 8
16 24 49 35 74 47 104 200 435 271 584 33 70 61 130 61 132 0 1 31 69 70 150
38 80 70 148 70 150 0 1 30 65 66 141 l66 138 -7 139 c-4 77 -9 149 -11 160
-6 32 -23 362 -25 484 -1 39 -4 72 -8 72 -3 0 -31 -22 -62 -48 -30 -26 -77
-65 -103 -87 -27 -22 -60 -50 -75 -63 -14 -13 -105 -87 -201 -164 -96 -78
-188 -153 -204 -167 -25 -23 -67 -103 -173 -331 -14 -30 -52 -110 -85 -178
-32 -68 -58 -125 -58 -127 0 -3 -32 -71 -71 -152 -38 -82 -87 -184 -108 -227
l-37 -79 -28 47 c-25 43 -132 159 -181 196 -52 39 -166 88 -246 106 -13 3 -60
8 -104 11 -72 5 -87 10 -153 49 -98 60 -211 110 -322 143 -60 18 -185 39 -249
43 l-44 2 6 101 c6 94 30 256 44 300 4 11 8 26 9 34 11 63 141 247 160 228 4
-4 1 -13 -6 -22 -17 -20 -2 -19 24 2 12 10 15 11 9 3 -27 -30 -14 -42 20 -19
l32 23 -20 -24 c-19 -22 -19 -23 -1 -16 16 5 17 4 6 -9 -8 -9 -8 -15 -2 -15 6
0 18 10 26 22 l16 22 1 -24 c0 -21 1 -22 8 -6 7 17 8 17 23 2 15 -15 17 -14
21 11 l4 28 2 -27 c1 -26 21 -42 21 -17 0 5 5 7 11 3 6 -3 15 0 20 7 7 11 9
10 9 -5 0 -12 5 -16 15 -12 8 3 15 1 15 -4 0 -6 5 -10 10 -10 6 0 10 9 10 20
0 13 5 18 15 14 8 -4 15 -1 15 5 0 6 9 11 20 11 11 0 20 -5 20 -11 0 -13 24
10 33 31 3 9 6 10 6 3 1 -7 6 -13 12 -13 6 0 8 7 5 16 -3 8 -2 12 4 9 6 -3 10
2 10 11 0 14 3 15 12 6 18 -18 30 -14 23 8 -4 13 -2 20 7 20 8 0 9 3 3 8 -19
14 -15 30 7 24 15 -4 19 -2 14 7 -5 8 -3 11 7 9 24 -5 22 16 -2 28 -23 12 -18
26 7 17 10 -4 13 -2 8 5 -4 7 -2 12 3 12 6 0 11 5 11 10 0 6 -7 10 -15 10 -8
0 -15 5 -15 10 0 6 3 9 8 9 20 -3 28 3 30 27 1 15 -2 23 -8 19 -16 -10 -7 18
10 32 10 9 11 12 3 13 -7 0 -12 6 -10 13 1 7 -6 11 -17 9 -14 -3 -17 1 -12 13
4 13 2 16 -9 11 -8 -3 -15 -1 -15 3 0 5 8 12 17 15 15 6 15 8 3 16 -10 7 -11
10 -2 10 6 0 12 7 12 15 0 13 -9 11 -47 -11 -37 -20 -42 -21 -23 -5 14 11 28
21 33 21 10 0 9 30 -1 30 -4 0 -14 -6 -22 -12 -12 -11 -12 -10 -2 4 10 12 10
18 1 23 -6 4 -15 1 -20 -6 -6 -9 -9 -10 -9 -2 0 6 5 15 11 19 8 4 7 9 -2 15
-8 5 -21 2 -34 -9 -11 -9 -14 -10 -7 -2 23 26 12 34 -14 9 l-27 -24 12 23 c7
13 9 27 5 30 -4 4 -9 1 -11 -5 -3 -7 -9 -13 -14 -13 -6 0 -5 8 1 20 9 16 8 20
-5 20 -8 0 -15 -4 -15 -10 0 -5 -4 -10 -10 -10 -5 0 -10 11 -10 25 0 31 -20
33 -21 3 0 -13 -3 -17 -6 -11 -3 9 -10 10 -24 3 -16 -9 -19 -7 -19 12 l0 23
-20 -25 -20 -25 0 23 c0 30 -30 29 -52 -2z m-191 -202 c-3 -3 -12 -4 -19 -1
-8 3 -5 6 6 6 11 1 17 -2 13 -5z m-1345 -266 c-8 -8 -9 -4 -5 13 4 13 8 18 11
10 2 -7 -1 -18 -6 -23z m113 -398 c3 -6 -1 -7 -9 -4 -18 7 -21 14 -7 14 6 0
13 -4 16 -10z m2034 -681 c92 -37 121 -56 196 -134 61 -62 125 -167 125 -201
-1 -25 -86 -208 -100 -212 -5 -2 -10 3 -10 11 0 7 -8 38 -18 68 -11 30 -21 60
-23 68 -8 27 -81 166 -105 198 -13 17 -24 34 -24 36 0 9 -57 75 -135 157 l-50
52 35 -7 c19 -4 68 -20 109 -36z m-2329 -1761 c0 -9 3 -8 10 2 5 8 11 12 14 9
3 -3 0 -13 -7 -22 -11 -16 -13 -16 -25 3 -7 12 -8 20 -2 20 5 0 10 -6 10 -12z
m485 -6 c-3 -3 -11 0 -18 7 -9 10 -8 11 6 5 10 -3 15 -9 12 -12z m15 -27 c0
-8 -4 -15 -8 -15 -5 0 -9 7 -9 15 0 8 4 15 9 15 4 0 8 -7 8 -15z m-340 -5 c0
-5 -4 -10 -10 -10 -5 0 -10 5 -10 10 0 6 5 10 10 10 6 0 10 -4 10 -10z m121
-17 c13 -16 12 -17 -3 -4 -10 7 -18 15 -18 17 0 8 8 3 21 -13z m79 -5 c0 -4
-4 -8 -9 -8 -6 0 -12 4 -15 8 -3 5 1 9 9 9 8 0 15 -4 15 -9z m111 -5 c13 -16
12 -17 -3 -4 -10 7 -18 15 -18 17 0 8 8 3 21 -13z m-241 -7 c0 -2 -8 -10 -17
-17 -16 -13 -17 -12 -4 4 13 16 21 21 21 13z m40 -2 c0 -8 -19 -13 -24 -6 -3
5 1 9 9 9 8 0 15 -2 15 -3z m2550 -54 c-6 -10 -15 -22 -21 -26 -6 -4 -6 3 2
17 7 13 12 28 11 32 -1 5 2 6 8 2 7 -4 7 -12 0 -25z m-2785 10 c3 -5 1 -10 -4
-10 -6 0 -11 5 -11 10 0 6 2 10 4 10 3 0 8 -4 11 -10z m82 -5 c0 -8 -4 -12 -9
-9 -5 3 -6 10 -3 15 9 13 12 11 12 -6z m39 -9 c1 -7 -4 -13 -12 -13 -9 0 -11
4 -4 12 5 7 8 15 5 18 -3 4 -2 5 2 2 4 -3 8 -11 9 -19z m79 15 c-9 -8 -36 -10
-30 -2 2 4 11 8 20 8 8 0 13 -3 10 -6z m85 1 c0 -5 -7 -9 -15 -9 -8 0 -12 4
-9 9 3 4 9 8 15 8 5 0 9 -4 9 -8z m40 2 c0 -8 -19 -13 -24 -6 -3 5 1 9 9 9 8
0 15 -2 15 -3z m84 -2 c3 -5 -1 -9 -9 -9 -8 0 -12 4 -9 9 3 4 7 8 9 8 2 0 6
-4 9 -8z m31 -2 c3 -5 1 -10 -4 -10 -6 0 -11 5 -11 10 0 6 2 10 4 10 3 0 8 -4
11 -10z m-179 -46 c1 -9 0 -13 -4 -10 -3 4 -7 14 -8 22 -1 9 0 13 4 10 3 -4 7
-14 8 -22z m44 7 c0 -6 -4 -12 -8 -15 -5 -3 -9 1 -9 9 0 8 4 15 9 15 4 0 8 -4
8 -9z m-449 -48 c12 -16 12 -17 -2 -6 -9 7 -19 10 -22 6 -4 -3 -7 -1 -7 5 0
17 16 15 31 -5z m73 9 c3 -5 -1 -9 -9 -9 -8 0 -12 4 -9 9 3 4 7 8 9 8 2 0 6
-4 9 -8z m50 -3 c3 -3 -4 -5 -14 -6 -11 -1 -20 2 -20 7 0 8 25 8 34 -1z m83
-4 c0 -8 -4 -12 -9 -9 -4 3 -8 9 -8 15 0 5 4 9 8 9 5 0 9 -7 9 -15z m123 6 c0
-6 -4 -12 -8 -15 -5 -3 -9 1 -9 9 0 8 4 15 9 15 4 0 8 -4 8 -9z m65 0 c-9 -8
-36 -10 -30 -2 2 4 11 8 20 8 8 0 13 -3 10 -6z m79 1 c3 -5 -1 -9 -9 -9 -8 0
-12 4 -9 9 3 4 7 8 9 8 2 0 6 -4 9 -8z m-283 -45 c-6 -8 -9 -16 -6 -19 3 -3
-3 -11 -12 -19 -16 -13 -17 -12 -4 4 7 9 10 17 6 17 -4 0 -2 7 5 15 7 8 15 15
17 15 3 0 0 -6 -6 -13z m-117 -15 c3 -5 -1 -9 -9 -9 -8 0 -15 4 -15 9 0 4 4 8
9 8 6 0 12 -4 15 -8z m412 -17 c-3 -23 -12 -26 -13 -5 -1 11 2 20 7 20 4 0 7
-7 6 -15z m-186 -1 c0 -8 -19 -13 -24 -6 -3 5 1 9 9 9 8 0 15 -2 15 -3z m-454
-57 c5 -1 8 -5 7 -9 -2 -5 1 -8 6 -8 5 0 8 -8 7 -17 -2 -10 -8 -18 -15 -18 -6
0 -16 -7 -21 -15 -7 -11 -12 -12 -21 -3 -9 9 -18 9 -33 2 -20 -10 -20 -10 -2
5 13 11 15 16 6 16 -7 0 -10 3 -7 6 4 4 13 1 22 -6 9 -8 15 -8 15 -2 0 6 -5
14 -10 17 -6 4 -3 15 7 30 10 12 21 18 24 13 3 -5 10 -10 15 -11z m-81 -107
c-2 -12 2 -23 10 -27 21 -7 19 -22 -2 -18 -10 1 -25 -4 -34 -11 -14 -13 -16
-12 -14 8 1 24 25 68 37 68 4 0 5 -9 3 -20z"/>
<path d="M2989 9253 c-9 -9 -7 -14 5 -19 14 -5 14 -9 4 -23 -10 -13 -9 -13 8
2 11 9 24 14 29 10 4 -5 3 2 -3 13 -6 12 -9 23 -7 26 3 3 -2 5 -10 5 -8 0 -20
-6 -26 -14z m30 -16 c0 -9 -2 -8 -6 1 -2 6 -10 9 -15 6 -7 -4 -8 -2 -4 5 9 13
26 5 25 -12z"/>
<path d="M2923 9148 c-13 -23 -13 -40 1 -29 7 6 17 7 22 3 4 -4 3 0 -4 9 -6 9
-9 19 -5 22 3 4 4 7 0 7 -3 0 -9 -6 -14 -12z"/>
<path d="M10500 12109 c-143 -29 -198 -48 -301 -99 -207 -105 -369 -271 -477
-491 -109 -221 -147 -407 -147 -714 0 -229 23 -382 82 -555 32 -93 117 -267
143 -290 3 -3 24 -30 47 -60 164 -216 431 -358 743 -394 68 -9 250 -8 322 0
484 55 819 344 954 824 14 47 27 101 30 120 3 19 7 42 9 50 11 40 19 169 19
300 0 203 -11 306 -50 460 -75 301 -229 530 -459 684 -110 74 -237 130 -345
152 -185 38 -423 44 -570 13z m380 -413 c279 -57 444 -303 477 -706 15 -185 4
-409 -26 -548 -73 -336 -259 -507 -560 -516 -344 -11 -571 222 -619 634 -9 84
-9 419 0 490 36 263 122 442 263 549 67 51 124 76 213 94 68 15 188 16 252 3z"/>
<path d="M16305 12115 c-155 -27 -270 -67 -380 -133 -329 -196 -516 -509 -572
-957 -16 -121 -7 -412 15 -540 73 -421 289 -728 620 -882 113 -53 233 -86 357
-98 71 -7 241 -7 300 0 118 14 262 64 355 123 30 19 99 80 152 134 l97 98 -1
-102 c0 -57 1 -131 1 -165 l1 -63 175 0 175 0 0 38 c3 226 0 1295 -2 1298 -2
2 -243 5 -536 6 l-532 4 -1 -36 c-3 -143 2 -314 10 -319 5 -3 124 -5 264 -5
255 1 255 1 252 -20 -2 -11 -6 -48 -10 -81 -23 -203 -148 -367 -328 -431 -133
-47 -329 -34 -462 31 -259 127 -379 467 -342 977 17 239 84 413 207 539 104
106 237 161 390 161 149 0 256 -45 362 -152 69 -71 130 -177 143 -252 5 -25
13 -38 24 -39 18 -1 460 -1 504 0 l29 1 -6 58 c-23 225 -178 474 -391 628
-103 75 -306 159 -437 180 -79 13 -355 13 -433 -1z"/>
<path d="M7490 10814 l0 -1284 818 2 817 3 0 218 1 217 -558 0 -558 0 0 1064
0 1063 -260 0 -260 1 0 -1284z"/>
<path d="M12538 12087 c-3 -7 -4 -583 -4 -1282 l1 -1270 257 -3 258 -2 2 881
3 881 88 -128 c49 -71 124 -181 168 -244 44 -63 106 -153 138 -200 99 -145
277 -402 328 -475 27 -38 150 -215 272 -393 l222 -322 232 2 232 3 0 1280 0
1280 -257 2 c-235 1 -258 0 -259 -15 0 -9 -1 -390 -1 -845 -1 -652 -4 -825
-13 -815 -7 7 -43 58 -80 113 -37 55 -112 163 -165 240 -109 157 -752 1089
-849 1232 l-63 91 -253 0 c-183 0 -255 -3 -257 -11z"/>
<path d="M6598 10532 c-14 -17 11 -37 26 -22 16 16 25 12 23 -10 -1 -11 -5
-20 -10 -20 -5 0 -6 7 -3 16 5 14 4 15 -9 4 -8 -7 -15 -9 -15 -5 0 4 -14 -7
-30 -25 -17 -18 -28 -36 -24 -39 3 -3 14 4 24 17 11 13 21 18 25 12 3 -5 1
-10 -5 -10 -6 0 -8 -5 -4 -12 4 -6 3 -8 -3 -5 -5 3 -22 -5 -39 -18 -16 -13
-23 -24 -16 -25 7 0 10 -5 6 -12 -4 -7 -3 -8 4 -4 6 4 8 14 5 23 -5 12 -2 15
10 10 10 -4 16 -2 14 5 -3 16 71 18 84 2 8 -10 5 -16 -10 -26 -27 -16 -27 -28
-1 -23 11 2 18 0 15 -5 -3 -6 1 -7 10 -4 14 6 14 8 -2 21 -10 8 -12 12 -5 8
21 -11 37 6 18 20 -15 11 -15 13 -1 19 9 3 13 11 9 17 -4 8 0 9 15 4 13 -4 21
-2 21 5 0 6 -4 8 -10 5 -5 -3 -10 0 -10 8 0 8 -15 28 -34 45 -19 17 -33 32
-31 34 2 2 -5 4 -16 4 -11 0 -25 -6 -31 -14z m26 -13 c-3 -5 -10 -7 -15 -3 -5
3 -7 10 -3 15 3 5 10 7 15 3 5 -3 7 -10 3 -15z m65 -65 c-6 -8 -8 -14 -3 -14
5 0 2 -4 -6 -10 -9 -5 -19 -5 -26 1 -6 5 -20 6 -29 2 -14 -5 -17 -3 -12 10 3
9 2 19 -3 22 -6 4 -10 12 -10 18 0 8 3 8 8 2 4 -5 18 -12 31 -13 18 -3 22 0
18 11 -10 26 7 30 26 6 13 -16 15 -25 6 -35z"/>
<path d="M6665 10477 c4 -30 2 -31 -24 -18 -13 7 -18 6 -18 -4 0 -8 4 -12 9
-9 5 3 14 1 21 -5 21 -16 40 22 23 45 -13 16 -13 16 -11 -9z"/>
<path d="M6695 10421 c-3 -5 -1 -13 5 -16 8 -5 7 -11 -1 -21 -6 -8 -8 -14 -3
-14 5 0 0 -7 -10 -15 -17 -13 -18 -17 -6 -28 10 -10 11 -9 5 3 -7 12 -6 13 6
3 9 -8 20 -9 29 -3 13 8 13 10 1 10 -8 0 -11 3 -8 7 4 3 15 -1 25 -10 18 -16
32 -14 32 6 0 5 -8 6 -17 3 -15 -5 -15 -4 1 9 11 8 14 15 8 15 -7 0 -11 3 -11
8 4 24 -3 33 -20 27 -11 -3 -22 -1 -26 4 -3 7 0 8 9 5 9 -3 16 -1 16 5 0 13
-27 15 -35 2z m51 -48 c-2 -10 -11 -18 -22 -18 -10 0 -18 -6 -16 -13 1 -8 -2
-11 -8 -7 -8 5 -7 11 1 21 6 8 8 14 3 14 -5 0 0 7 10 15 22 17 35 12 32 -12z"/>
<path d="M6722 10381 c-11 -7 -11 -9 0 -14 9 -3 15 1 15 9 0 8 -1 14 -1 14 -1
0 -7 -4 -14 -9z"/>
<path d="M6611 10363 c4 -25 -1 -35 -14 -24 -18 15 -41 -7 -26 -25 13 -16 -7
-30 -24 -15 -8 6 -18 6 -27 1 -8 -5 -17 -7 -21 -4 -4 2 -10 0 -13 -5 -4 -5 -2
-13 4 -16 7 -4 2 -16 -12 -30 -13 -13 -23 -32 -23 -42 0 -10 -5 -17 -12 -16
-6 1 -10 -8 -8 -22 1 -15 -7 -35 -20 -49 -13 -14 -20 -28 -16 -31 12 -13 5
-30 -24 -58 -16 -16 -24 -26 -17 -22 6 3 12 2 12 -4 0 -5 -6 -12 -12 -15 -7
-3 1 -3 18 -1 33 5 61 -15 50 -34 -4 -5 -2 -12 3 -15 11 -7 9 -25 -4 -46 -13
-21 -15 -40 -3 -40 6 0 8 -6 5 -14 -3 -8 0 -20 8 -26 10 -8 18 -5 34 16 12 15
21 23 21 19 0 -4 7 -2 15 5 8 7 12 17 8 23 -4 6 0 8 9 4 22 -8 30 3 15 21 -10
13 -9 15 5 9 18 -6 68 33 68 54 0 6 6 7 13 3 7 -5 6 0 -3 11 -13 17 -13 18 1
13 12 -5 26 6 48 36 16 24 27 46 24 50 -3 3 -1 6 5 6 7 0 12 7 12 15 0 8 5 15
11 15 6 0 9 6 6 14 -3 7 0 19 6 25 10 10 14 22 22 66 2 11 4 21 5 23 2 1 3 17
4 35 2 35 -20 59 -44 48 -8 -4 -19 -7 -25 -6 -17 1 -44 19 -44 30 -1 6 -4 10
-8 10 -5 0 -14 4 -21 8 -7 5 -12 5 -11 0z m3 -34 c10 16 38 1 31 -17 -4 -12
-3 -13 10 -2 14 11 19 7 16 -12 0 -5 2 -8 7 -9 4 0 16 -2 27 -4 10 -2 25 1 32
7 7 6 14 8 14 4 5 -22 4 -53 0 -61 -6 -10 -7 -16 -10 -35 0 -5 -8 -10 -16 -10
-8 0 -15 -5 -15 -11 0 -5 4 -8 9 -4 16 10 21 -12 6 -25 -8 -7 -12 -16 -9 -21
3 -5 -2 -12 -10 -15 -9 -3 -14 -10 -11 -14 3 -5 1 -11 -5 -15 -6 -4 -8 -10 -5
-15 3 -4 -8 -22 -24 -39 -15 -16 -26 -34 -22 -38 3 -4 -2 -1 -11 6 -18 13 -24
6 -19 -21 0 -5 -4 -8 -10 -8 -5 0 -8 -4 -5 -9 3 -4 -5 -18 -18 -30 -17 -16
-26 -19 -31 -11 -6 9 -10 9 -16 -1 -4 -7 -3 -19 2 -25 7 -8 5 -11 -8 -10 -10
0 -18 -6 -18 -14 0 -8 -6 -15 -12 -15 -7 0 -20 -10 -28 -23 -9 -12 -20 -20
-24 -18 -10 6 -8 37 4 55 6 11 4 13 -11 8 -17 -6 -18 -6 -2 6 14 11 17 33 8
57 -1 3 -3 10 -4 15 0 6 -9 21 -19 35 -13 19 -19 22 -26 12 -7 -11 -9 -11 -14
2 -4 10 2 22 17 31 14 10 23 24 22 38 -1 12 5 33 15 47 9 14 14 30 12 36 -2 7
8 21 23 33 25 19 24 26 -1 21 -5 -1 2 11 17 27 23 24 26 32 15 42 -6 8 -7 11
-2 8 6 -3 17 -2 25 3 9 5 19 5 27 -2 18 -14 48 9 33 27 -13 16 0 28 16 14 8
-6 14 -7 18 0z m120 -24 c-7 -16 -24 -21 -24 -6 0 8 7 13 27 20 1 1 0 -6 -3
-14z"/>
<path d="M6587 10319 c11 -13 9 -19 -7 -34 -16 -15 -22 -15 -35 -5 -12 10 -15
10 -15 0 0 -7 -11 -21 -25 -32 -19 -15 -23 -23 -15 -33 8 -9 4 -17 -15 -29
-14 -9 -25 -22 -23 -29 1 -7 -4 -23 -12 -37 -8 -14 -14 -35 -14 -48 -1 -13
-12 -32 -26 -43 -14 -10 -18 -17 -10 -14 18 6 65 -49 55 -65 -3 -5 -1 -11 5
-15 6 -4 7 -11 4 -17 -4 -7 -2 -8 4 -4 13 8 16 -6 5 -18 -5 -4 -9 -12 -9 -17
-1 -5 -2 -10 -4 -11 -1 -2 -3 -14 -4 -27 l-3 -24 19 27 c11 14 24 23 29 20 5
-3 8 -2 7 3 -1 4 6 23 16 41 13 25 20 31 30 23 10 -8 18 -6 31 9 10 11 15 20
11 20 -3 0 1 14 9 30 9 17 20 28 25 25 10 -6 60 41 58 54 0 3 1 9 2 14 4 12 7
26 9 38 0 5 7 7 14 3 6 -4 9 -3 4 1 -4 5 0 16 9 26 15 17 15 18 -5 14 -28 -5
-27 10 2 30 12 8 23 20 23 25 1 6 3 11 4 13 1 1 3 14 4 29 2 18 -1 25 -8 20
-6 -4 -23 -7 -38 -8 -26 0 -33 7 -28 31 1 6 -4 4 -11 -2 -18 -18 -32 -16 -26
2 7 17 -9 30 -18 15 -5 -8 -12 -7 -23 2 -15 11 -15 11 -5 -3z m64 -33 c7 4 9
3 6 -3 -9 -14 9 -20 49 -18 33 1 41 -18 13 -36 -12 -7 -12 -9 0 -9 8 0 0 -11
-17 -24 -26 -19 -30 -25 -19 -35 8 -6 16 -10 18 -8 3 1 -2 -5 -11 -13 -8 -8
-15 -22 -14 -30 0 -8 -2 -19 -5 -25 -3 -5 -6 -14 -6 -20 0 -5 -6 -11 -12 -11
-26 -3 -28 -5 -13 -14 10 -6 11 -10 3 -10 -21 0 -27 -2 -45 -11 -10 -5 -17
-13 -15 -17 1 -4 -2 -7 -8 -7 -5 0 -9 3 -7 8 1 4 -2 7 -8 7 -15 0 -12 -26 5
-40 12 -10 13 -16 4 -26 -9 -11 -15 -11 -25 -3 -9 8 -17 4 -30 -16 l-17 -26
-24 22 c-16 16 -20 26 -13 33 13 13 13 29 1 21 -5 -3 -20 9 -32 27 -13 17 -18
28 -11 24 7 -4 12 -1 12 8 0 9 6 16 13 16 8 0 7 4 -3 10 -8 5 -10 10 -4 10 5
0 15 -5 22 -12 7 -7 12 -8 12 -2 0 11 -20 42 -20 31 0 -5 -4 -5 -10 -2 -6 4
-3 16 7 32 10 15 18 31 18 37 0 6 4 12 8 13 4 1 15 9 23 18 12 12 13 19 4 30
-9 11 -6 17 16 31 14 10 34 18 44 19 10 1 26 9 35 19 13 13 20 14 31 5 7 -6
19 -7 25 -3z m-167 -395 c3 -4 -4 -17 -16 -27 -13 -12 -18 -13 -12 -4 5 8 9
18 10 23 3 15 4 17 8 17 3 0 7 -4 10 -9z"/>
<path d="M6598 10271 c-7 -10 -23 -17 -36 -16 -13 1 -26 -5 -31 -13 -4 -7 -11
-13 -14 -13 -17 2 -19 0 -7 -14 10 -12 8 -19 -8 -40 -11 -14 -23 -21 -25 -15
-3 6 -4 5 -3 -2 2 -7 -6 -26 -17 -42 -12 -16 -16 -27 -10 -23 6 4 18 -4 27
-18 9 -14 12 -26 6 -26 -5 -1 -16 -2 -22 -3 -7 -1 -12 -7 -10 -14 1 -7 -4 -12
-10 -12 -10 0 -10 -2 0 -9 8 -4 13 -12 13 -17 -1 -5 4 -10 9 -10 6 -1 15 -2
22 -3 7 -1 5 -8 -6 -19 -15 -18 -15 -20 6 -38 12 -10 19 -14 16 -9 -8 14 39
48 47 35 4 -6 11 -8 16 -4 6 4 6 11 -2 20 -6 7 -15 11 -20 8 -12 -7 -11 3 2
27 6 11 16 18 23 16 6 -3 20 1 30 9 11 7 23 11 29 7 6 -3 7 -1 4 4 -8 13 17
36 27 25 4 -4 7 -2 6 3 -1 6 -1 13 0 18 2 6 4 21 9 58 0 5 7 7 14 3 6 -4 4 2
-6 13 -17 20 -17 21 8 37 14 9 23 21 20 26 -3 5 3 13 12 19 18 11 17 11 -29
15 -15 2 -38 10 -52 19 -23 16 -26 16 -38 -2z m72 -33 c0 -5 5 -8 11 -8 5 0 8
4 5 8 -3 5 1 9 9 9 8 0 11 -5 7 -11 -4 -6 -7 -14 -7 -18 0 -3 -4 -10 -9 -15
-5 -4 -6 -3 -3 3 8 14 -20 27 -28 14 -3 -4 1 -10 7 -13 10 -3 10 -7 0 -19 -9
-11 -10 -18 -2 -23 16 -10 2 -25 -18 -18 -15 6 -15 5 -2 -11 8 -10 15 -24 16
-32 3 -18 -74 -84 -91 -78 -7 3 -23 -9 -35 -25 -12 -18 -16 -31 -10 -31 7 0 2
-9 -11 -19 -29 -23 -47 -16 -24 9 16 17 15 19 -3 29 -11 6 -21 8 -24 6 -2 -2
-4 7 -4 20 0 13 2 22 4 20 3 -2 13 0 24 6 18 10 18 11 -2 38 l-20 29 36 46
c31 41 34 49 22 63 -8 11 -8 14 -1 10 7 -4 16 0 22 10 6 10 11 13 11 8 0 -6
-5 -16 -12 -23 -7 -7 -8 -12 -2 -12 14 0 36 16 35 26 -1 5 4 10 9 10 6 1 15 2
20 3 6 0 9 4 9 9 -1 4 -1 10 0 14 1 9 61 -25 61 -34z"/>
<path d="M6614 10262 c8 -13 -28 -35 -39 -24 -3 4 -5 3 -4 -3 1 -5 -18 -32
-44 -59 -26 -27 -44 -52 -41 -57 3 -5 0 -9 -6 -9 -6 0 -2 -13 9 -29 l21 -29
-26 -19 -26 -19 25 -16 c23 -16 25 -16 46 13 13 17 29 28 36 25 8 -3 30 10 50
28 29 27 33 35 20 40 -10 4 -14 2 -9 -6 4 -7 3 -8 -4 -4 -8 5 -10 1 -6 -11 6
-16 4 -15 -10 2 -10 11 -14 14 -11 7 6 -12 3 -12 -15 -2 -17 9 -19 14 -10 20
7 4 9 13 5 20 -6 9 -4 11 5 5 9 -6 11 -4 5 5 -5 9 -4 11 3 6 8 -5 10 -2 6 8
-3 9 -2 16 3 16 5 0 9 -9 10 -20 1 -11 -2 -20 -8 -20 -5 0 -9 -4 -9 -10 0 -12
22 -9 32 5 5 6 8 5 8 -2 0 -7 5 -13 11 -13 8 0 7 5 -2 16 -25 31 -19 57 9 34
9 -7 9 -7 2 2 -6 7 -6 16 1 25 9 9 7 14 -5 19 -15 6 -15 7 0 18 14 11 13 14
-11 30 -15 10 -25 13 -21 8z m19 -37 c-17 -13 -17 -14 0 -20 17 -7 17 -8 0
-20 -9 -7 -22 -11 -29 -8 -6 2 -19 -7 -28 -21 -9 -15 -14 -26 -10 -26 4 0 2
-6 -4 -13 -7 -8 -7 -17 1 -28 12 -16 18 -19 39 -19 6 0 3 -6 -8 -14 -11 -9
-23 -11 -28 -6 -5 5 -20 -5 -35 -24 -23 -29 -29 -32 -44 -21 -16 11 -16 13 -2
19 10 4 14 2 9 -5 -4 -7 -1 -10 7 -7 8 3 13 13 11 23 -3 12 1 16 12 12 10 -4
13 -1 9 8 -3 8 -9 13 -14 10 -4 -3 -13 4 -19 16 -8 15 -9 19 -1 15 6 -4 11 -3
11 3 0 5 -5 13 -10 16 -24 15 110 138 137 128 11 -4 10 -8 -4 -18z"/>
<path d="M6583 10207 c-23 -17 -51 -44 -63 -60 -19 -24 -20 -28 -5 -33 12 -5
13 -9 4 -20 -7 -8 -9 -17 -5 -21 3 -3 6 0 6 7 0 9 5 7 15 -6 8 -10 15 -15 15
-10 0 5 6 3 14 -3 11 -9 16 -9 22 0 4 7 3 9 -3 6 -17 -10 -44 38 -30 52 6 6 7
11 3 11 -5 0 -3 7 4 15 7 8 9 15 4 15 -5 0 2 7 14 16 12 8 26 13 31 9 5 -3 12
-1 15 4 4 5 2 13 -4 16 -8 5 -7 11 1 21 18 21 8 17 -38 -19z m17 -1 c0 -2 -8
-10 -17 -17 -16 -13 -17 -12 -4 4 13 16 21 21 21 13z m-44 -43 c-2 -9 -8 -19
-16 -21 -9 -3 -10 -6 0 -12 9 -5 9 -9 1 -14 -6 -4 -11 -2 -11 4 0 6 -6 8 -12
5 -7 -4 -2 3 11 14 13 12 20 21 17 21 -4 0 -4 5 -1 10 9 15 14 12 11 -7z m-8
-88 c-3 -3 -9 2 -12 12 -6 14 -5 15 5 6 7 -7 10 -15 7 -18z"/>
<path d="M6489 9953 c-13 -16 -12 -17 4 -4 9 7 17 15 17 17 0 8 -8 3 -21 -13z"/>
<path d="M2960 10162 c0 -7 -3 -11 -8 -9 -4 3 -22 -10 -41 -28 -21 -21 -41
-32 -54 -30 -11 3 -17 2 -13 -2 8 -9 -14 -34 -25 -27 -5 3 -9 0 -9 -5 0 -6 -5
-11 -11 -11 -5 0 -8 4 -5 8 7 12 -46 8 -71 -6 -13 -7 -22 -16 -20 -20 1 -4 -8
-18 -20 -31 -12 -13 -19 -30 -16 -39 5 -11 3 -13 -7 -7 -8 5 -11 4 -6 -3 3 -6
2 -13 -3 -16 -5 -4 -8 -14 -7 -24 2 -9 -1 -20 -6 -23 -5 -3 -2 -9 7 -12 10 -5
14 -3 9 5 -5 7 -3 8 6 3 9 -6 11 -4 5 5 -6 9 -4 11 5 5 9 -6 11 -4 5 5 -5 9
-4 11 4 6 8 -5 9 -12 2 -20 -7 -8 -4 -16 12 -26 20 -12 21 -12 8 4 -18 22 -6
33 16 15 14 -12 16 -12 8 0 -6 10 -4 12 5 6 9 -6 11 -4 6 6 -4 8 -1 6 7 -3 8
-10 17 -15 20 -11 11 11 8 23 -5 21 -7 -2 -12 2 -11 9 2 7 -6 10 -17 8 -11 -2
-20 1 -20 6 0 6 -4 8 -9 5 -5 -3 -14 1 -21 9 -11 14 -7 19 13 16 11 -2 8 14
-5 28 -11 11 -10 12 1 6 10 -6 12 -4 6 6 -8 12 -6 12 8 1 17 -15 38 -8 36 11
0 9 -2 9 -6 0 -6 -17 -20 -16 -20 1 0 9 8 13 19 11 12 -3 18 1 15 8 -2 7 -13
10 -23 9 -10 -2 -16 -1 -13 2 4 4 19 9 35 12 19 3 24 1 16 -4 -11 -7 -10 -10
3 -15 10 -5 14 -3 9 5 -5 7 -3 8 6 3 9 -6 11 -4 5 5 -6 10 -4 10 11 2 14 -8
21 -6 31 6 12 15 12 15 7 -3 l-7 -20 16 20 c9 11 17 16 17 11 0 -5 10 -1 22
10 14 12 19 14 13 4 -7 -12 -6 -13 6 -2 12 11 12 14 0 21 -8 5 -9 11 -3 15 12
7 25 -22 15 -36 -4 -7 -1 -8 7 -3 9 6 11 4 5 -5 -5 -8 -4 -11 1 -7 5 3 10 -3
10 -13 0 -10 -4 -16 -8 -14 -4 2 -5 -5 -3 -16 4 -19 -27 -50 -50 -50 -5 0 -3
5 5 11 13 9 12 10 -3 5 -12 -4 -16 -2 -11 6 5 7 3 8 -6 3 -9 -5 -11 -4 -6 3 5
8 2 10 -8 6 -19 -7 -21 7 -3 26 10 12 9 12 -4 2 -9 -6 -18 -10 -20 -7 -3 2 -5
-4 -5 -15 0 -10 5 -16 11 -12 5 3 4 -1 -3 -10 -9 -11 -10 -18 -2 -23 5 -3 10
1 10 9 0 9 5 16 10 16 5 0 9 -6 8 -12 -2 -8 8 -13 24 -12 15 0 25 -4 22 -10
-3 -6 0 -4 8 5 7 9 18 17 23 19 19 5 46 28 38 32 -4 3 -1 3 7 1 8 -2 11 -1 7
3 -4 4 -1 14 5 23 10 13 10 14 -2 4 -8 -7 -19 -13 -25 -13 -5 0 -3 5 5 11 13
9 12 10 -2 5 -10 -3 -18 -1 -18 4 0 6 7 10 16 10 8 0 12 5 9 10 -4 6 -10 8
-15 5 -5 -3 -13 3 -19 13 -7 14 -6 19 4 19 7 0 11 -7 8 -16 -4 -13 -3 -13 5
-2 5 7 16 10 23 7 8 -4 6 -1 -4 7 -17 14 -16 15 16 13 44 -3 57 -12 52 -36 -2
-12 0 -18 6 -14 6 3 9 15 6 25 -4 16 -2 17 14 8 10 -5 19 -7 19 -3 0 3 6 1 14
-5 8 -7 13 -21 11 -31 -3 -14 1 -17 13 -13 13 4 14 3 3 -5 -11 -8 -11 -10 0
-15 11 -4 11 -6 0 -6 -11 -1 -10 -5 5 -17 18 -14 18 -14 -6 -3 -14 6 -22 8
-18 4 4 -5 2 -15 -5 -24 -11 -14 -10 -14 6 -2 22 17 49 -1 30 -20 -6 -6 -9
-18 -5 -27 4 -11 1 -14 -11 -9 -25 9 -21 2 9 -18 15 -9 23 -12 20 -6 -5 7 -1
9 8 5 18 -7 20 4 5 26 -9 12 -10 11 -4 -5 5 -16 4 -17 -6 -8 -10 10 -9 16 2
29 11 14 11 16 1 10 -11 -7 -12 -4 -3 12 6 12 16 24 21 27 6 4 8 15 5 26 -4
11 -2 19 5 19 6 0 8 -5 4 -12 -5 -7 -3 -8 6 -3 9 5 11 4 6 -4 -10 -16 13 -43
31 -37 11 4 11 1 3 -17 -11 -21 -11 -21 4 -3 9 11 16 15 16 10 0 -6 -3 -14 -7
-18 -4 -3 -7 -16 -8 -27 -2 -20 -1 -20 17 2 10 13 16 17 12 8 -7 -21 14 -35
29 -20 9 9 8 11 -5 6 -20 -8 -25 10 -6 21 6 4 8 3 5 -3 -3 -5 0 -10 8 -10 8 0
11 5 7 11 -3 6 12 -4 34 -21 23 -18 44 -30 48 -26 6 6 10 -12 7 -30 -1 -5 4
-5 10 -1 8 5 9 3 4 -6 -11 -18 15 -30 39 -19 21 10 21 10 1 -7 -17 -14 -18
-16 -2 -10 12 4 16 2 11 -6 -4 -6 -3 -8 3 -5 5 3 10 0 10 -8 0 -11 -4 -12 -14
-3 -7 6 -16 9 -18 6 -3 -3 1 -11 10 -18 12 -10 18 -10 30 0 8 7 12 17 8 24 -4
6 -8 18 -10 26 -1 8 -8 17 -15 19 -7 2 -28 21 -47 42 -18 21 -37 36 -42 34 -4
-3 -10 -1 -14 5 -4 6 -11 8 -16 5 -5 -4 -9 -1 -9 5 0 6 -4 9 -9 5 -11 -6 -34
29 -25 38 3 3 -2 4 -13 3 -23 -4 -45 13 -36 28 3 6 2 8 -2 3 -5 -4 -17 1 -27
10 -22 19 -48 26 -48 12 0 -6 -6 -7 -12 -2 -13 8 -19 9 -39 12 -8 1 -7 6 2 17
10 13 10 17 -1 24 -8 5 -18 6 -22 4 -4 -3 -8 0 -8 6 0 6 -4 9 -9 6 -5 -3 -14
1 -21 9 -7 8 -16 13 -20 10 -5 -3 -11 -1 -15 4 -3 6 -12 8 -19 5 -8 -3 -21 5
-30 18 -9 12 -16 17 -16 10z m49 -38 c5 4 12 2 16 -4 4 -6 10 -8 15 -5 5 3 11
1 14 -4 4 -5 -2 -8 -11 -6 -10 2 -18 4 -18 5 0 7 -76 6 -80 -1 -3 -4 -12 -6
-21 -2 -12 5 -12 7 3 18 9 7 24 10 32 7 10 -4 12 -1 6 9 -5 8 1 6 13 -4 11
-11 25 -16 31 -13z m-129 -48 c-15 -15 -44 -17 -31 -2 6 7 18 13 26 13 11 0
12 -4 5 -11z m275 -56 c-3 -4 1 -10 7 -13 9 -3 8 -10 -6 -23 -10 -11 -16 -14
-12 -7 3 6 2 14 -3 17 -8 5 -8 18 -2 44 1 2 6 0 11 -3 6 -4 8 -10 5 -15z m117
-44 c4 3 11 -4 17 -15 10 -17 9 -20 -4 -15 -8 4 -23 0 -33 -7 -15 -13 -16 -12
-3 4 11 13 11 20 1 32 -7 8 -16 13 -20 10 -4 -3 -13 2 -20 10 -7 8 -9 15 -5
15 4 0 1 8 -6 18 -7 9 5 0 27 -21 22 -20 43 -35 46 -31z m-326 29 c-1 -8 -8
-21 -16 -28 -10 -10 -11 -9 -4 3 5 8 9 18 10 23 3 14 4 17 8 17 2 0 3 -7 2
-15z m-223 -98 c6 3 7 1 3 -6 -6 -9 -13 -9 -31 3 -16 10 -25 12 -33 4 -9 -9
-10 -1 -3 30 1 2 13 -6 27 -17 15 -11 31 -18 37 -14z m649 8 c10 0 77 -75 67
-75 -5 0 -12 0 -16 0 -5 0 -8 3 -8 8 -1 16 -27 52 -34 48 -5 -3 -17 4 -27 16
-12 13 -13 18 -4 12 8 -5 18 -9 22 -9z"/>
<path d="M2983 10086 c1 -6 -4 -10 -12 -8 -11 2 -12 0 -3 -11 7 -8 10 -16 7
-19 -3 -2 2 -5 10 -6 8 -1 22 -3 29 -4 8 -1 15 -4 14 -7 0 -3 1 -8 2 -11 1 -3
3 -13 5 -23 3 -16 1 -16 -13 -5 -15 11 -15 11 -5 -3 7 -9 9 -20 5 -24 -4 -5 0
-4 8 0 12 7 13 6 4 -6 -11 -13 -3 -59 10 -59 6 0 2 23 -8 39 -7 10 -6 12 4 6
8 -5 11 -4 6 3 -3 6 -1 14 5 18 8 5 9 3 4 -6 -6 -9 -4 -11 5 -5 8 5 11 4 7 -2
-4 -6 4 -9 18 -7 14 1 23 -2 20 -6 -3 -5 -13 -6 -21 -3 -14 5 -15 3 -4 -17 7
-12 8 -20 2 -16 -14 9 -25 -25 -12 -38 8 -8 9 -6 5 7 -4 9 -3 17 2 17 5 0 10
-6 10 -12 0 -7 4 -22 8 -33 6 -16 5 -17 -4 -5 -10 13 -12 13 -22 0 -9 -13 -10
-13 -6 2 8 23 -2 29 -26 17 -13 -7 -17 -7 -13 -1 3 6 2 13 -4 17 -5 3 -10 0
-10 -7 0 -9 -3 -9 -10 2 -5 8 -10 11 -10 6 0 -5 -6 -3 -13 3 -8 6 -17 7 -21 3
-4 -4 -6 -1 -4 7 2 7 -3 16 -11 19 -10 3 -11 0 -5 -9 7 -12 5 -12 -9 0 -14 11
-17 11 -17 0 0 -11 -2 -11 -10 1 -8 13 -10 13 -10 1 0 -11 -4 -10 -14 4 -8 11
-12 24 -9 31 2 7 -5 11 -19 10 -33 -3 -47 11 -42 41 4 21 2 24 -13 19 -16 -5
-15 -4 1 9 11 8 15 15 9 15 -7 0 -15 -5 -18 -10 -4 -6 -10 -8 -15 -5 -4 3 -15
-7 -25 -21 -9 -14 -22 -23 -30 -21 -7 3 -12 -1 -11 -11 0 -10 -5 -16 -14 -14
-8 2 -11 0 -7 -4 9 -9 34 -16 60 -15 11 0 17 -5 14 -13 -3 -7 1 -13 9 -13 7 0
11 5 8 11 -3 6 0 4 8 -4 16 -18 83 -26 72 -9 -4 8 -3 9 4 5 6 -4 8 -14 5 -23
-5 -12 -3 -14 7 -8 9 5 11 4 6 -3 -4 -7 -2 -12 3 -12 6 0 11 6 11 13 0 8 3 9
8 1 4 -6 15 -10 25 -8 11 1 16 0 14 -3 -9 -8 17 -31 28 -25 25 15 36 10 19 -9
-21 -23 -12 -25 22 -3 20 13 24 14 22 3 -2 -10 7 -14 29 -13 28 1 31 -2 22
-18 -13 -24 6 -25 20 0 7 11 10 12 11 3 0 -7 6 -11 15 -7 8 3 14 2 13 -2 -3
-15 15 -42 24 -36 5 3 5 11 -2 19 -8 10 -8 15 1 21 8 4 9 3 5 -4 -4 -7 3 -17
19 -24 14 -6 21 -14 16 -18 -6 -3 -1 -12 11 -19 18 -11 20 -11 15 2 -3 9 1 21
9 27 10 9 14 9 14 1 0 -6 -6 -11 -12 -11 -9 0 -8 -3 2 -10 9 -6 17 -5 22 3 6
9 8 8 8 -2 0 -8 6 -11 16 -7 8 3 12 2 9 -3 -3 -5 -1 -12 5 -16 9 -6 14 8 11
28 -1 5 3 6 9 2 7 -4 7 -12 0 -26 -7 -13 -7 -19 0 -19 5 0 10 6 10 13 1 7 6 5
14 -5 10 -14 15 -15 26 -5 10 9 11 9 5 -2 -6 -10 -2 -12 14 -6 14 4 23 1 27
-9 3 -9 10 -16 16 -16 5 0 7 4 3 9 -3 5 0 13 6 17 7 4 9 3 5 -4 -7 -12 4 -21
36 -27 12 -3 24 -8 27 -12 3 -5 17 -9 31 -11 14 -1 31 -3 37 -4 9 -1 10 -5 2
-15 -14 -16 3 -17 19 -1 7 7 12 9 12 4 0 -16 -29 -36 -36 -25 -4 8 -9 7 -15
-2 -7 -11 -9 -11 -9 -1 0 7 -4 10 -10 7 -5 -3 -10 -1 -10 5 0 6 -5 8 -11 5 -6
-4 -8 -14 -5 -24 5 -13 4 -13 -8 2 -10 14 -15 15 -19 5 -4 -10 -6 -10 -6 1 -1
11 -4 11 -16 1 -12 -10 -15 -10 -15 0 0 8 -3 10 -7 7 -3 -4 -15 1 -26 10 -12
11 -17 12 -12 4 6 -10 4 -12 -5 -6 -9 6 -11 4 -5 -5 6 -9 4 -11 -5 -5 -9 5
-11 4 -6 -3 4 -7 2 -12 -3 -12 -14 0 -14 17 -1 25 15 9 0 34 -18 28 -14 -4
-14 -3 -3 5 18 13 -48 10 -69 -3 -9 -6 -11 -4 -6 6 4 8 0 5 -8 -5 -9 -11 -16
-15 -16 -10 0 6 -7 11 -15 11 -18 0 -19 -9 -2 -26 10 -11 9 -12 -2 -6 -9 5
-12 4 -7 -3 3 -6 2 -13 -3 -17 -6 -3 -8 4 -6 15 2 11 0 18 -6 15 -5 -4 -9 -13
-9 -21 0 -8 -5 -14 -12 -14 -13 0 -2 -14 13 -16 5 -1 12 -2 15 -3 4 0 0 -9 -7
-18 -13 -17 -13 -17 6 -3 18 14 19 14 7 -2 -8 -9 -21 -14 -30 -11 -13 4 -14 3
-3 -5 8 -6 9 -12 3 -16 -6 -3 -13 0 -16 6 -3 7 -3 -3 0 -22 5 -32 4 -33 -9
-16 -10 13 -16 15 -21 8 -4 -7 -2 -12 5 -12 7 0 9 -3 6 -6 -4 -4 -14 -1 -24 7
-13 11 -15 11 -9 1 7 -12 4 -12 -14 -2 -18 10 -21 9 -18 -2 3 -7 10 -13 15
-13 6 0 14 -3 17 -6 4 -3 -6 -5 -21 -3 -16 1 -28 3 -28 4 0 1 -8 3 -18 5 -10
2 -14 -1 -11 -7 5 -7 2 -8 -6 -3 -8 5 -11 4 -6 -3 4 -7 -1 -10 -14 -7 -13 3
-18 0 -14 -7 4 -6 3 -8 -4 -4 -6 3 -13 2 -17 -4 -4 -6 -12 -7 -18 -3 -7 4 -16
8 -22 8 -5 0 -10 7 -10 15 -1 8 -6 14 -13 13 -7 -2 -9 4 -5 15 5 14 3 13 -11
-3 -17 -20 -17 -20 -6 3 11 22 10 23 -9 13 -25 -14 -31 -14 -31 0 0 5 5 7 10
4 6 -3 10 -1 10 4 0 14 -17 14 -25 1 -12 -20 -23 0 -19 37 3 29 1 34 -7 23 -9
-13 -10 -13 -6 2 3 9 -3 24 -16 35 -21 18 -21 18 -7 -2 14 -19 14 -19 -5 -5
-18 13 -19 13 -10 0 6 -9 0 -5 -11 8 -14 15 -27 22 -34 17 -8 -5 -11 -4 -6 3
3 6 2 13 -3 16 -5 4 -8 17 -5 31 2 13 0 26 -6 30 -6 3 -7 -1 -4 -9 3 -9 1 -16
-6 -16 -6 0 -9 4 -5 9 3 6 -3 8 -14 6 -16 -3 -19 1 -15 20 2 12 -3 28 -11 35
-8 7 -15 18 -15 24 0 6 4 5 9 -3 5 -8 11 -9 15 -3 3 5 -1 15 -9 22 -16 13 -15
13 -19 -30 -1 -8 4 -25 12 -37 7 -12 13 -25 12 -30 -1 -4 7 -10 17 -14 13 -6
14 -8 3 -9 -10 0 -6 -5 9 -14 18 -10 20 -15 10 -19 -11 -4 -11 -6 -1 -6 8 -1
10 -6 6 -13 -4 -7 -4 -10 1 -6 5 5 16 -6 26 -22 11 -17 24 -30 29 -30 6 0 8
-5 4 -12 -4 -6 -3 -8 4 -4 6 3 13 2 17 -4 4 -6 11 -7 17 -4 6 4 9 1 6 -7 -4
-12 31 -49 46 -49 3 0 20 -12 37 -27 17 -15 36 -28 42 -29 35 -3 38 -5 31 -16
-5 -9 -2 -9 9 1 15 12 17 11 17 -3 0 -10 5 -14 10 -11 6 4 8 11 5 16 -3 5 0 7
7 6 7 -2 9 -2 5 1 -4 2 -3 10 4 18 9 11 15 12 26 2 12 -10 18 -9 29 7 10 14
14 15 14 4 0 -12 2 -12 10 1 8 13 10 13 10 1 0 -11 4 -10 13 4 8 10 19 15 25
11 6 -3 18 4 27 16 8 13 19 23 23 23 4 0 19 9 34 19 15 10 31 15 36 12 5 -3
17 2 25 12 15 17 15 18 -6 19 -28 1 -68 11 -75 18 -10 9 42 55 68 60 32 6 52
-12 40 -35 -12 -22 13 -50 26 -29 5 9 11 7 21 -6 7 -11 14 -16 14 -12 1 4 2
10 3 15 3 17 18 32 27 27 5 -4 18 -8 29 -11 11 -2 29 -6 40 -8 11 -3 22 -1 25
5 6 8 32 7 60 -3 6 -1 11 2 13 7 2 6 12 19 22 30 24 25 14 42 -23 40 -19 -1
-31 5 -38 17 -6 11 -13 17 -16 14 -4 -3 -12 -1 -20 5 -14 12 -18 0 -5 -17 4
-5 1 -4 -6 2 -18 15 -23 61 -6 61 6 0 10 -6 7 -14 -3 -7 0 -13 6 -13 6 0 10 6
9 13 -2 6 3 11 10 9 8 -1 11 2 6 9 -5 8 -3 9 6 4 9 -6 11 -4 5 5 -5 9 -4 11 4
6 9 -6 9 -11 0 -22 -14 -17 2 -19 20 -1 11 10 12 9 5 -3 -14 -24 -14 -42 1
-36 7 2 18 -1 24 -8 6 -7 22 -12 36 -10 14 1 23 -2 20 -6 -3 -5 -13 -7 -23 -4
-16 5 -16 5 0 -5 9 -6 24 -8 33 -5 14 6 14 8 0 24 -9 9 -27 16 -40 14 -14 -1
-25 2 -25 7 0 5 5 9 10 9 6 0 10 5 10 10 0 6 -3 9 -7 8 -10 -3 -50 24 -52 35
0 4 -1 10 -1 14 0 3 -9 -2 -19 -11 -13 -12 -21 -14 -26 -6 -5 8 -12 7 -24 -4
-16 -14 -20 -13 -52 14 -19 16 -30 29 -25 30 4 0 -1 8 -12 18 -12 9 -22 24
-24 32 -4 21 -40 49 -56 43 -7 -3 -12 -2 -11 3 4 23 -3 26 -21 9 -15 -13 -23
-15 -33 -7 -10 8 -17 8 -24 1 -6 -6 -17 -8 -23 -4 -9 6 -9 9 1 15 10 7 10 11
0 24 -8 9 -10 16 -6 16 5 0 0 9 -10 20 -14 15 -21 17 -31 9 -16 -13 -11 -59 7
-69 7 -5 3 -13 -12 -23 -21 -15 -24 -15 -51 4 -26 19 -31 47 -5 33 7 -4 9 -4
5 1 -4 4 -3 14 4 22 14 17 3 29 -15 15 -7 -6 -19 -7 -26 -3 -10 7 -9 9 3 14 9
4 13 13 10 22 -3 8 -1 15 6 15 6 0 8 5 3 13 -4 6 -8 21 -8 31 0 11 -8 20 -17
22 -12 1 -15 -3 -11 -14 4 -10 3 -14 -2 -10 -4 4 -14 3 -22 -3 -14 -12 -15
-11 -17 23 -1 14 -8 22 -23 23 -12 1 -21 -3 -20 -9z m33 -20 c0 -21 -3 -23
-18 -15 -22 12 -24 21 -3 12 9 -3 15 -2 14 3 -2 12 0 24 4 24 2 0 3 -11 3 -24z
m66 -23 c-6 -3 -9 -10 -5 -16 10 -17 11 -47 1 -41 -4 3 -8 1 -8 -4 0 -5 -6 -9
-14 -9 -8 0 -13 8 -11 18 2 10 -1 21 -6 25 -15 9 6 29 33 31 13 0 17 -1 10 -4z
m-295 -50 c5 3 10 0 10 -8 0 -8 -5 -15 -10 -15 -5 0 2 -12 17 -27 14 -14 24
-29 20 -32 -3 -3 -10 2 -15 11 -5 10 -16 15 -24 12 -8 -4 -15 -1 -15 6 0 6 -5
8 -12 4 -6 -4 -8 -3 -4 4 3 6 2 13 -4 17 -9 5 -14 -7 -11 -27 0 -4 -6 -5 -14
-2 -11 5 -9 11 10 32 14 15 25 31 25 37 0 5 4 4 9 -4 5 -7 13 -11 18 -8z m397
-28 c-5 -11 -1 -14 12 -9 14 4 15 3 6 -4 -11 -7 -10 -11 4 -16 13 -5 14 -10 6
-18 -22 -22 -49 28 -33 60 5 10 9 -1 5 -13z m131 -75 c-4 -21 9 -27 20 -10 5
8 11 7 21 -1 10 -8 11 -15 4 -24 -8 -9 -8 -15 0 -20 5 -3 10 -1 10 6 0 6 15
-8 34 -33 19 -24 46 -52 60 -61 17 -12 23 -22 19 -34 -4 -11 -8 -13 -11 -5 -2
7 -9 9 -14 6 -7 -4 -8 -2 -4 4 4 7 1 12 -9 12 -10 0 -13 -5 -9 -12 4 -7 3 -8
-4 -4 -6 4 -8 14 -5 24 6 15 5 16 -12 2 -14 -12 -19 -12 -23 -2 -3 10 -7 10
-20 0 -12 -10 -14 -10 -8 0 4 7 2 12 -4 12 -7 0 -10 7 -6 18 6 16 5 16 -8 -1
-10 -13 -15 -15 -18 -5 -4 10 -9 10 -23 -2 -11 -9 -16 -10 -11 -3 4 8 -2 17
-19 25 -14 6 -24 17 -21 24 3 8 0 11 -9 8 -8 -3 -11 -12 -9 -19 3 -7 1 -16 -4
-19 -5 -3 -9 2 -8 11 1 12 -7 18 -21 19 -13 1 -26 3 -30 4 -5 1 -11 2 -15 1
-5 0 -7 2 -7 7 3 19 -3 22 -23 11 -13 -6 -3 7 22 30 51 46 53 47 70 26 13 -16
31 -20 29 -7 -3 19 2 23 17 12 12 -11 18 -10 32 3 21 21 22 21 17 -3z m-184
-33 c-13 -13 -33 3 -37 28 -2 12 2 12 22 -2 18 -11 22 -19 15 -26z m393 -105
c3 -5 -1 -9 -9 -9 -8 0 -12 4 -9 9 3 4 7 8 9 8 2 0 6 -4 9 -8z m81 -32 c3 -5
1 -10 -4 -10 -6 0 -11 5 -11 10 0 6 2 10 4 10 3 0 8 -4 11 -10z m-240 -119
c-2 -14 -4 -27 -4 -29 -1 -2 -6 0 -11 3 -7 4 -7 12 -1 23 7 12 5 22 -7 36 -16
18 -16 18 5 6 15 -10 20 -21 18 -39z m-580 -20 c17 -27 20 -28 33 -13 7 10 11
11 7 4 -4 -7 -2 -19 5 -27 9 -10 7 -13 -6 -11 -9 1 -23 11 -31 22 -8 10 -17
18 -21 17 -4 -2 -7 0 -7 5 0 4 -4 13 -8 20 -17 26 9 10 28 -17z m635 25 c0 -2
-8 -10 -17 -17 -16 -13 -17 -12 -4 4 13 16 21 21 21 13z m-115 -58 c5 4 5 1 1
-6 -4 -7 -12 -10 -17 -6 -5 3 -22 -2 -37 -12 -15 -10 -29 -19 -32 -19 -3 0
-12 -4 -20 -9 -8 -4 2 8 23 28 30 30 41 35 56 27 10 -6 22 -7 26 -3z m-370
-96 c-3 -3 0 -11 6 -19 17 -20 5 -16 -14 5 -15 16 -15 19 -2 19 8 0 13 -3 10
-5z m152 -18 c-9 -9 -28 6 -21 18 4 6 10 6 17 -1 6 -6 8 -13 4 -17z m-55 -6
c-14 -14 -44 -20 -36 -7 3 5 9 7 14 4 5 -3 11 -1 15 5 3 5 9 10 13 10 3 0 1
-5 -6 -12z"/>
<path d="M3046 10031 c-4 -5 -2 -12 4 -16 6 -4 8 -11 5 -16 -4 -5 -2 -9 3 -9
6 0 12 6 15 14 7 17 -18 42 -27 27z"/>
<path d="M2756 9982 c-3 -5 4 -18 17 -28 21 -19 21 -19 7 0 -8 11 -13 21 -12
23 2 3 1 7 -1 9 -3 3 -8 1 -11 -4z"/>
<path d="M3187 9929 c7 -7 15 -10 18 -7 3 3 -2 9 -12 12 -14 6 -15 5 -6 -5z"/>
<path d="M3172 9867 l-22 -24 21 -19 c26 -23 22 -24 48 6 20 23 21 23 11 3 -9
-19 -8 -22 5 -17 21 9 19 27 -8 52 -29 27 -29 27 -55 -1z m47 -1 c17 -20 -26
-51 -46 -34 -11 9 -11 14 3 29 20 23 28 23 43 5z"/>
<path d="M3181 9857 c-6 -8 -8 -17 -5 -20 10 -9 45 13 39 24 -9 13 -21 11 -34
-4z m29 -1 c0 -2 -7 -7 -16 -10 -8 -3 -12 -2 -9 4 6 10 25 14 25 6z"/>
<path d="M3256 9863 c3 -16 6 -36 8 -47 4 -29 69 -56 82 -34 9 15 25 8 22 -9
-2 -10 2 -18 7 -18 6 0 15 -4 22 -8 6 -4 15 -3 18 3 5 8 12 7 23 -2 10 -7 6 0
-8 15 -13 15 -30 25 -37 23 -7 -3 -15 0 -19 6 -4 6 -3 8 4 4 17 -10 23 10 7
24 -8 7 -15 9 -15 5 0 -4 -7 -2 -15 5 -11 9 -12 16 -5 25 16 19 -2 27 -22 8
-17 -16 -24 -9 -19 20 1 4 -11 0 -26 -10 -15 -10 -24 -13 -20 -6 4 6 3 14 -2
17 -5 4 -7 -6 -5 -21z m86 -6 c-12 -15 11 -53 27 -43 5 4 13 1 17 -6 4 -7 3
-10 -1 -5 -5 4 -19 0 -32 -8 -21 -14 -28 -12 -24 8 1 5 -4 7 -11 4 -7 -2 -12
-10 -10 -16 1 -8 -4 -7 -18 1 -11 7 -15 15 -10 16 7 3 7 9 -1 19 -10 12 -10
16 1 23 8 5 19 5 26 -1 7 -6 16 -4 24 6 7 8 15 15 17 15 3 0 1 -6 -5 -13z m72
-98 c-3 -5 -10 -7 -15 -3 -5 3 -7 10 -3 15 3 5 10 7 15 3 5 -3 7 -10 3 -15z"/>
<path d="M3286 9841 c-4 -5 -2 -12 4 -16 6 -4 7 -12 3 -18 -4 -7 0 -7 10 1 18
15 41 7 31 -10 -4 -7 -2 -8 4 -4 9 5 8 12 0 26 -7 11 -14 17 -17 15 -2 -3 -10
0 -17 6 -8 6 -14 6 -18 0z"/>
<path d="M3107 9869 c7 -7 15 -10 18 -7 3 3 -2 9 -12 12 -14 6 -15 5 -6 -5z"/>
<path d="M3229 9523 c-13 -16 -12 -17 4 -4 9 7 17 15 17 17 0 8 -8 3 -21 -13z"/>
<path d="M2874 10049 c-3 -5 -10 -7 -15 -4 -5 4 -9 2 -9 -4 0 -10 38 -27 52
-23 4 1 5 -5 1 -14 -3 -9 -9 -12 -12 -7 -10 15 -40 23 -46 12 -4 -5 -3 -8 2
-7 4 1 17 -3 29 -9 26 -15 39 -5 39 31 0 29 -28 46 -41 25z m36 -10 c0 -4 -9
-7 -19 -6 -11 0 -18 4 -16 7 6 9 35 8 35 -1z"/>
<path d="M2987 10024 c-3 -3 -4 -11 -2 -17 4 -11 -80 -72 -97 -72 -5 0 -7 -4
-5 -10 3 -13 46 -15 54 -2 3 6 1 7 -5 3 -6 -3 -13 -2 -16 3 -14 21 25 3 44
-21 13 -17 28 -25 40 -23 11 2 22 0 25 -6 9 -14 22 -11 29 7 3 8 2 12 -4 9
-14 -9 -40 38 -35 63 2 12 0 24 -6 27 -16 10 -10 27 7 21 14 -5 15 -4 4 9 -13
16 -23 19 -33 9z m14 -51 c-11 -5 -11 -7 0 -14 12 -7 12 -9 0 -9 -9 0 -4 -13
15 -37 15 -21 22 -33 14 -27 -8 6 -23 10 -33 9 -12 -2 -25 8 -38 28 -21 36
-12 52 32 54 13 0 18 -1 10 -4z"/>
<path d="M2960 9960 c-11 -7 -12 -10 -2 -10 7 0 11 -4 8 -8 -7 -12 10 -35 28
-38 13 -2 14 1 4 19 -7 12 -12 25 -13 29 0 13 -11 17 -25 8z m28 -45 c-3 -3
-9 2 -12 12 -6 14 -5 15 5 6 7 -7 10 -15 7 -18z"/>
<path d="M3053 9925 c0 -8 4 -15 9 -15 4 0 8 4 8 9 0 6 -4 12 -8 15 -5 3 -9
-1 -9 -9z"/>
<path d="M2770 9875 c-11 -13 -38 -13 -60 0 -13 7 -13 6 -2 -7 8 -10 9 -19 3
-22 -5 -4 -12 -2 -16 4 -4 6 -11 8 -16 5 -5 -4 -9 -2 -9 2 0 5 -9 9 -20 10
-20 2 -29 -16 -10 -18 6 -1 16 -2 23 -3 6 -1 11 -7 10 -14 -2 -7 2 -12 7 -12
6 0 10 5 10 11 0 5 4 8 9 4 5 -3 13 -1 16 5 5 8 12 7 23 -2 14 -11 15 -10 9 7
-7 19 -6 19 7 2 11 -14 15 -15 19 -5 4 7 4 -1 2 -18 -4 -22 0 -36 13 -45 15
-13 16 -12 3 4 -20 25 1 46 25 26 11 -9 15 -9 10 -2 -5 9 -2 11 7 7 8 -3 18
-1 21 5 4 6 14 8 24 5 14 -5 15 -4 2 5 -12 8 -11 10 7 8 14 -1 19 -5 13 -12
-8 -10 0 -35 13 -38 3 -1 13 7 22 18 16 20 16 20 5 -2 -9 -19 -8 -22 6 -16 10
4 15 2 11 -3 -3 -6 -1 -16 5 -24 8 -12 9 -12 4 2 -3 10 0 20 6 24 7 5 8 2 3
-7 -7 -11 -6 -12 7 -2 8 7 18 10 22 6 4 -4 4 1 0 12 -7 20 -6 20 10 0 10 -11
14 -14 11 -7 -6 11 -3 12 14 3 24 -13 29 -23 7 -15 -19 7 -31 -15 -16 -29 9
-9 15 -7 26 7 8 12 14 15 14 7 0 -11 3 -11 15 -1 12 10 13 8 10 -10 -3 -18 0
-20 18 -15 17 5 19 4 7 -4 -12 -8 -11 -10 7 -8 12 0 20 4 17 9 -2 4 5 5 17 3
27 -5 33 -11 20 -20 -6 -3 -11 -1 -11 5 0 6 -5 8 -11 4 -8 -5 -8 -9 1 -14 9
-5 9 -9 1 -14 -6 -4 -11 -1 -11 6 0 9 -3 9 -10 -2 -5 -8 -10 -19 -10 -25 0 -5
5 -3 10 5 9 13 10 13 10 0 0 -13 2 -13 11 0 9 13 10 12 5 -3 -5 -15 -2 -16 14
-7 24 13 30 13 30 -1 0 -5 -4 -7 -10 -4 -5 3 -10 1 -10 -5 0 -6 -4 -9 -9 -6
-4 3 -7 -6 -5 -19 1 -16 -2 -23 -8 -19 -7 5 -8 2 -3 -6 6 -9 4 -11 -5 -5 -9 6
-11 4 -5 -6 8 -12 6 -12 -8 0 -9 7 -17 9 -17 4 0 -5 -7 -10 -16 -10 -14 0 -14
2 2 15 16 12 16 14 2 9 -10 -3 -20 -2 -23 3 -4 6 -11 10 -18 10 -6 0 -2 -7 9
-15 16 -13 16 -14 2 -9 -21 7 -24 -6 -6 -24 9 -9 9 -12 -1 -12 -7 0 -9 -5 -6
-11 5 -6 12 -4 22 8 8 10 12 12 8 6 -4 -9 -1 -11 11 -6 14 5 16 3 11 -11 -4
-10 -3 -15 4 -11 5 4 7 15 4 25 -5 14 -1 18 14 17 11 0 17 -5 14 -11 -4 -5 -1
-6 7 -1 9 5 11 4 6 -4 -4 -6 -12 -9 -17 -6 -5 4 -9 1 -9 -4 0 -6 5 -11 10 -11
6 0 10 -4 10 -9 0 -6 -8 -8 -19 -6 -12 2 -18 -2 -17 -13 0 -9 -6 -17 -14 -17
-18 0 -21 24 -6 44 9 12 7 12 -12 2 -19 -10 -21 -15 -12 -34 11 -21 11 -21 -4
-3 -9 11 -16 14 -16 8 0 -7 0 -15 -1 -19 0 -11 -50 -36 -57 -29 -3 4 0 12 8
19 10 9 11 9 6 0 -5 -9 -2 -11 8 -7 18 7 18 7 20 50 2 22 -2 30 -10 27 -7 -2
-15 0 -19 6 -3 7 0 8 9 5 18 -7 20 4 5 26 -9 12 -10 11 -5 -5 6 -19 5 -19 -8
-2 -12 16 -14 16 -20 2 -4 -11 -2 -14 7 -10 6 4 3 -1 -8 -11 -20 -16 -20 -17
0 -10 11 4 16 4 12 0 -4 -4 -2 -13 4 -21 9 -10 8 -13 -1 -13 -7 0 -10 -6 -7
-13 3 -7 -1 -21 -9 -32 -10 -14 -14 -15 -14 -4 0 8 -3 10 -8 4 -4 -5 -14 -11
-22 -13 -12 -2 -11 1 2 11 10 8 15 17 11 20 -3 4 -13 1 -21 -6 -13 -10 -14 -9
-7 2 5 9 4 12 -2 8 -6 -4 -10 1 -9 11 0 10 -6 16 -16 16 -11 -1 -15 3 -11 10
4 6 -1 5 -10 -3 -10 -8 -20 -11 -24 -7 -3 3 0 6 8 6 11 0 11 2 -1 10 -11 7
-11 10 -2 10 7 0 10 5 7 10 -4 6 -12 7 -18 3 -7 -4 -6 0 2 10 13 16 8 22 -13
18 -5 -1 -4 4 2 11 6 8 7 19 3 27 -10 16 -22 16 -31 1 -5 -9 -10 -6 -15 9 -3
11 -11 21 -18 21 -8 0 -8 -3 1 -12 17 -17 15 -31 -4 -24 -10 4 -13 2 -8 -6 4
-7 3 -8 -5 -4 -6 4 -9 11 -6 16 3 5 -3 13 -12 19 -10 6 -13 11 -7 11 6 0 11 7
11 15 0 8 -5 12 -10 8 -5 -3 -1 6 8 21 17 26 33 38 19 14 -5 -9 -2 -9 9 1 20
16 23 25 5 15 -7 -4 -10 -3 -5 1 4 5 0 17 -9 27 -14 14 -20 16 -33 6 -13 -10
-14 -10 -3 2 6 8 12 18 12 23 0 5 -8 1 -17 -10 -10 -10 -13 -12 -8 -3 9 13 8
13 -9 0 -16 -12 -18 -12 -11 -1 6 10 4 12 -5 6 -9 -6 -11 -4 -5 5 6 9 4 11 -5
5 -9 -5 -11 -4 -6 3 5 8 2 10 -8 6 -20 -8 -20 -18 -1 -34 11 -9 12 -16 5 -25
-8 -9 -8 -15 0 -20 6 -4 9 -13 6 -21 -6 -16 10 -28 19 -14 11 18 35 -10 31
-36 -3 -16 3 -27 20 -39 14 -9 28 -14 33 -11 4 3 19 -7 34 -22 19 -20 25 -36
22 -60 -2 -27 0 -30 11 -21 10 8 18 9 27 0 8 -6 16 -8 19 -5 9 8 48 -52 40
-61 -4 -5 -2 -5 5 -1 6 3 15 1 18 -4 5 -8 13 -6 26 6 10 9 19 13 19 9 0 -4 8
-1 18 8 10 10 22 14 25 10 4 -3 7 0 7 7 0 9 5 7 14 -6 14 -19 15 -19 13 0 -2
15 5 20 28 22 17 1 32 3 35 4 3 1 9 2 13 1 5 -1 5 4 1 10 -4 7 3 21 17 33 13
12 22 20 20 19 -2 -2 -10 2 -18 8 -10 9 -10 15 -2 25 6 8 9 14 5 14 -14 0 41
45 57 46 9 1 18 2 20 4 1 1 24 3 50 4 39 3 51 -1 62 -18 10 -14 15 -16 15 -6
0 10 5 8 14 -6 12 -16 24 -20 58 -19 24 2 43 4 43 5 0 1 8 3 18 5 9 2 17 -1
17 -6 0 -6 5 -7 11 -3 15 9 -9 23 -32 19 -10 -2 -23 3 -29 11 -7 7 -16 11 -22
8 -5 -3 -15 -1 -23 6 -9 7 -15 8 -20 0 -3 -5 -11 -10 -16 -10 -6 0 -8 4 -5 8
2 4 1 14 -4 22 -7 11 -11 11 -24 1 -12 -10 -16 -10 -16 -2 0 7 -4 10 -9 6 -5
-3 -12 -1 -16 5 -4 6 -11 8 -16 4 -6 -3 -18 1 -28 10 -22 20 -58 28 -66 15 -4
-5 -17 -2 -30 7 -14 9 -22 20 -19 25 3 5 1 9 -5 9 -5 0 -13 -5 -16 -10 -4 -7
-16 -1 -31 15 -20 21 -28 24 -39 15 -16 -13 -36 -5 -31 13 1 7 1 9 -1 5 -3 -4
-18 -1 -34 7 -26 14 -30 14 -35 0 -5 -12 -9 -13 -20 -4 -12 9 -12 15 -2 28 11
14 11 14 -3 4 -13 -11 -19 -10 -33 6 -10 11 -27 18 -39 15 -11 -2 -29 4 -39
12 -21 20 -74 26 -88 9z m42 -19 c-17 -20 -17 -20 10 -3 22 14 28 14 38 3 14
-18 -1 -28 -45 -31 -24 -1 -32 3 -31 14 1 9 -5 15 -13 13 -11 -2 -12 0 -3 10
6 8 22 14 36 14 25 0 25 -1 8 -20z m122 -37 c-10 -16 -23 -9 -21 10 1 15 4 17
14 9 7 -5 10 -14 7 -19z m-199 -55 c8 -1 18 2 21 7 4 6 11 6 20 -1 11 -10 10
-17 -8 -40 l-21 -29 -29 21 c-21 14 -26 24 -19 31 8 8 6 17 -7 31 l-17 21 23
-19 c13 -11 29 -21 37 -22z m399 -9 c3 -9 0 -12 -9 -9 -7 3 -16 12 -19 19 -3
9 0 12 9 9 7 -3 16 -12 19 -19z m-84 5 c0 -5 -5 -10 -11 -10 -5 0 -7 5 -4 10
3 6 8 10 11 10 2 0 4 -4 4 -10z m165 -50 c4 -7 11 -7 18 -2 15 12 43 8 62 -8
15 -13 10 -35 -5 -25 -5 3 -11 1 -15 -4 -3 -5 -14 -8 -25 -6 -11 2 -25 -4 -32
-14 -7 -9 -19 -21 -27 -26 -20 -12 -2 16 21 33 25 18 23 30 -4 28 -32 -3 -41
4 -27 20 14 17 25 18 34 4z m129 -28 c3 -5 -1 -9 -9 -9 -8 0 -12 4 -9 9 3 4 7
8 9 8 2 0 6 -4 9 -8z m60 -23 c-3 -5 -10 -7 -15 -3 -5 3 -7 10 -3 15 3 5 10 7
15 3 5 -3 7 -10 3 -15z m45 -25 c-6 -7 -15 -11 -21 -8 -5 3 -4 12 3 20 6 7 15
11 21 8 5 -3 4 -12 -3 -20z m49 3 c9 -10 6 -13 -13 -13 -19 0 -22 3 -13 13 6
7 12 13 13 13 1 0 7 -6 13 -13z m-650 -25 c-2 -9 3 -16 10 -14 14 2 16 -4 3
-12 -4 -3 -18 5 -29 17 -21 22 -21 23 -1 24 13 1 19 -4 17 -15z m197 -70 c-3
-3 -11 0 -18 7 -9 10 -8 11 6 5 10 -3 15 -9 12 -12z m-119 -24 c3 -4 -1 -5
-10 -4 -8 1 -18 5 -22 8 -3 4 1 5 10 4 8 -1 18 -5 22 -8z m124 4 c0 -13 -12
-22 -22 -16 -10 6 -1 24 13 24 5 0 9 -4 9 -8z m101 -15 c-10 -9 -11 -8 -5 6 3
10 9 15 12 12 3 -3 0 -11 -7 -18z m-153 -54 c-8 -10 -14 -10 -24 -2 -18 15
-18 15 11 15 19 0 22 -3 13 -13z"/>
<path d="M2786 9858 c3 -5 10 -6 15 -3 13 9 11 12 -6 12 -8 0 -12 -4 -9 -9z"/>
<path d="M2835 9849 c-4 -6 -4 -13 -1 -16 3 -4 6 -1 6 6 0 7 5 9 12 5 7 -4 8
-3 4 4 -9 15 -13 15 -21 1z"/>
<path d="M2755 9761 c-3 -5 -14 -8 -25 -6 -29 6 -33 -11 -7 -28 20 -13 24 -12
40 9 9 12 13 25 8 29 -5 3 -12 1 -16 -4z m5 -16 c-14 -17 -30 -20 -30 -4 0 5
4 8 9 4 5 -3 12 -1 16 5 3 5 9 10 12 10 3 0 0 -7 -7 -15z"/>
<path d="M3186 9702 c-2 -4 4 -8 14 -8 10 0 16 4 14 8 -3 4 -9 8 -14 8 -5 0
-11 -4 -14 -8z"/>
<path d="M3237 9703 c-3 -3 -3 -11 0 -19 4 -12 8 -11 19 3 13 17 14 17 7 -2
-6 -17 -4 -18 9 -8 8 7 18 11 22 8 3 -3 2 0 -2 5 -10 12 -48 21 -55 13z"/>
<path d="M2633 9827 c-3 -6 -1 -7 5 -3 7 4 12 3 12 -3 0 -5 -6 -12 -12 -14
-10 -4 -10 -6 0 -6 8 -1 10 -6 6 -13 -5 -10 -4 -10 5 -2 18 17 21 51 5 51 -8
0 -18 -5 -21 -10z"/>
<path d="M2715 9830 c-11 -18 5 -31 24 -20 10 5 20 8 22 7 2 -1 3 0 1 3 -2 3
-7 5 -10 5 -4 0 -12 4 -19 8 -6 4 -14 3 -18 -3z"/>
<path d="M2845 9804 c-14 -10 -22 -11 -32 -2 -17 14 -29 3 -15 -14 6 -7 10
-17 10 -23 1 -16 18 -17 32 0 14 17 0 21 -16 5 -7 -7 -11 -6 -11 3 0 8 9 13
21 12 12 0 27 4 35 9 12 9 13 8 6 -4 -13 -21 -15 -39 -4 -46 5 -3 7 -10 4 -15
-4 -5 -1 -9 5 -9 7 0 10 6 7 13 -3 8 1 14 9 14 9 0 12 -8 10 -24 -3 -13 -1
-21 5 -18 5 4 7 10 4 15 -3 4 2 11 10 14 12 4 13 2 6 -13 -10 -18 -6 -31 10
-31 4 0 6 8 4 18 -1 9 2 22 7 29 10 13 -29 56 -44 47 -4 -3 -11 1 -14 10 -8
21 -27 26 -49 10z m67 -29 c3 3 13 -4 22 -14 17 -19 6 -24 -19 -10 -5 4 -17 5
-26 4 -15 -3 -16 1 -10 34 1 2 7 -2 14 -8 8 -6 16 -9 19 -6z"/>
<path d="M6435 9780 c-4 -6 -11 -8 -16 -5 -5 3 -6 -1 -3 -9 4 -10 -1 -18 -11
-22 -13 -5 -14 -9 -3 -15 10 -7 10 -9 -2 -9 -13 0 -13 -1 0 -10 13 -9 13 -11
0 -21 -13 -9 -12 -10 2 -5 10 3 20 1 23 -5 4 -5 11 -7 16 -3 5 3 -1 14 -13 25
-13 12 -18 18 -11 15 6 -3 20 6 30 20 14 19 20 22 20 10 0 -9 -4 -16 -9 -16
-4 0 -8 -4 -8 -9 0 -12 53 -9 63 4 5 6 6 2 3 -8 -4 -12 -2 -16 7 -11 9 5 9 4
0 -7 -7 -7 -13 -17 -13 -23 0 -5 7 -1 16 10 14 18 15 18 4 -4 -11 -22 -10 -23
10 -12 17 9 25 9 34 0 8 -8 7 -10 -6 -5 -11 5 -19 -1 -24 -17 -4 -13 -7 -26
-6 -30 1 -5 -4 -7 -10 -5 -8 1 -12 -7 -11 -18 1 -19 1 -19 -12 -2 -11 16 -13
16 -19 2 -4 -11 -2 -14 7 -10 6 4 4 0 -7 -9 -18 -14 -18 -15 2 -13 11 0 18 5
15 11 -3 5 -1 6 6 2 6 -4 19 -2 28 6 14 11 16 11 9 0 -7 -11 -4 -12 11 -3 11
6 24 7 28 3 5 -4 5 0 0 8 -5 8 -5 12 0 8 4 -4 14 -3 21 3 9 7 12 6 9 -8 -1
-10 2 -26 7 -37 6 -10 6 -16 1 -13 -5 3 -9 -3 -10 -13 -1 -11 2 -22 7 -25 5
-3 7 -12 4 -20 -4 -8 0 -17 8 -20 16 -6 17 -32 3 -54 -5 -9 -4 -12 2 -8 5 3
10 0 10 -8 0 -8 -8 -12 -19 -10 -11 3 -18 -1 -16 -7 2 -6 14 -12 26 -13 11 -1
19 2 16 6 -2 4 0 10 5 13 5 4 8 14 6 24 -1 9 1 27 6 39 7 18 5 21 -9 16 -15
-6 -15 -4 -4 10 9 10 11 24 6 39 -4 13 -7 26 -6 30 1 5 -1 7 -6 7 -19 -3 -25
2 -12 11 13 8 13 10 -2 10 -11 0 -15 5 -12 14 10 27 -96 154 -124 148 -8 -2
-11 1 -7 8 4 6 -7 16 -24 23 -17 7 -28 16 -24 20 3 4 4 7 0 7 -3 0 -9 -5 -12
-10z m5 -30 c-6 -4 -11 -10 -11 -14 1 -3 -1 -6 -4 -6 -6 0 -5 9 2 27 3 7 10
10 15 7 6 -4 6 -9 -2 -14z m154 -116 c8 -21 7 -29 -4 -30 -5 -1 -11 -3 -12 -4
-9 -8 -58 -7 -58 1 0 5 3 8 8 7 4 -2 9 2 10 7 16 44 43 53 56 19z m62 -142
c-2 -9 -9 -18 -16 -20 -8 -3 -11 1 -8 10 4 8 2 21 -2 28 -5 8 -6 18 -3 24 8
13 32 -21 29 -42z"/>
<path d="M6565 9640 c3 -5 2 -10 -3 -10 -5 0 -9 -7 -9 -14 0 -11 5 -12 17 -6
10 5 21 6 26 2 5 -4 0 3 -10 16 -19 22 -32 30 -21 12z"/>
<path d="M2978 9756 c-6 -12 -16 -24 -22 -28 -7 -5 -6 -8 4 -8 13 0 13 -1 0
-10 -13 -8 -13 -10 -1 -10 11 0 9 -4 -5 -14 -14 -11 -21 -11 -26 -3 -4 7 -13
12 -20 12 -7 1 -12 6 -11 12 1 6 -5 10 -15 9 -9 0 -17 5 -18 12 -1 6 -3 15 -4
20 -1 4 -2 11 -1 15 1 4 -18 -7 -42 -25 -46 -34 -55 -65 -27 -90 12 -11 12
-10 3 2 -7 10 -8 21 -3 30 5 8 6 18 3 24 -3 5 -1 6 6 2 6 -4 9 -12 6 -17 -4
-5 1 -12 9 -15 9 -3 14 -10 11 -15 -3 -4 4 -6 15 -4 12 2 24 -3 30 -16 6 -10
8 -19 4 -19 -3 0 -1 -7 6 -15 7 -8 9 -15 5 -15 -4 0 -2 -6 4 -13 6 -8 7 -18 3
-22 -4 -5 -1 -5 5 -1 8 4 23 -3 38 -18 14 -14 25 -20 25 -14 0 5 9 0 20 -13
10 -13 20 -22 20 -19 8 39 6 59 -6 64 -13 5 -13 9 0 35 18 35 43 35 62 0 13
-24 13 -24 9 8 -4 35 10 52 27 35 6 -6 16 -8 23 -6 7 3 16 1 20 -5 4 -8 11 -6
22 4 12 12 12 19 3 30 -7 8 -16 13 -20 10 -14 -9 -21 14 -11 33 9 17 7 19 -14
16 -22 -2 -29 6 -26 28 1 8 -20 5 -37 -6 -16 -9 -45 12 -38 29 8 21 -25 12
-36 -9z m-124 -41 c-3 -20 -1 -23 16 -20 11 2 24 -3 30 -13 8 -14 10 -14 10
-2 0 12 3 11 11 -2 9 -16 12 -17 34 -2 14 9 22 23 20 34 -2 10 3 24 11 31 11
9 18 8 34 -6 16 -14 23 -15 34 -6 12 10 17 8 26 -8 6 -12 16 -20 23 -18 7 1
11 -4 9 -12 -3 -16 17 -43 28 -36 5 3 12 0 16 -6 4 -8 3 -9 -4 -5 -7 4 -12 1
-12 -6 0 -10 -2 -10 -9 1 -6 9 -10 10 -16 2 -5 -9 -10 -9 -21 0 -17 14 -48 -6
-37 -24 3 -6 1 -7 -6 -3 -6 4 -9 11 -6 16 3 4 -2 11 -11 14 -12 5 -15 2 -10
-9 3 -9 2 -13 -4 -10 -5 3 -15 -3 -22 -14 -11 -18 -13 -18 -25 -3 -12 15 -12
15 -6 -2 5 -16 3 -18 -12 -13 -15 6 -16 5 -5 -8 7 -8 17 -12 24 -8 6 3 8 3 4
-2 -4 -4 -3 -15 4 -22 7 -8 13 -24 13 -35 2 -20 1 -20 -12 -2 -8 10 -17 19
-21 19 -15 0 -72 47 -67 55 3 5 1 11 -4 15 -5 3 -8 14 -6 24 3 18 -19 37 -38
32 -4 0 -10 6 -13 14 -3 8 -11 12 -17 8 -5 -3 -7 -1 -3 5 3 6 1 14 -5 18 -8 5
-4 13 12 25 29 21 39 17 33 -16z"/>
<path d="M2834 9725 c-4 -8 -11 -12 -17 -8 -6 3 -2 -5 9 -19 10 -14 21 -24 23
-22 2 2 -2 10 -9 19 -7 8 -8 15 -3 15 5 0 10 7 10 15 0 19 -6 19 -13 0z"/>
<path d="M2987 9733 c-2 -5 -3 -16 -2 -25 4 -22 -50 -64 -61 -47 -4 8 -9 7
-15 -2 -6 -10 -10 -7 -18 11 -5 14 -10 18 -11 10 0 -13 -1 -13 -10 0 -6 9 -10
10 -10 3 0 -7 9 -17 19 -23 12 -6 18 -18 16 -30 -2 -11 1 -22 6 -25 5 -4 7
-10 4 -15 -4 -7 41 -44 55 -45 3 0 12 -4 20 -9 8 -5 0 7 -17 25 -35 37 -42 55
-18 45 8 -3 14 -2 14 2 -3 19 2 23 15 13 12 -10 18 -7 31 13 13 20 21 24 35
16 18 -10 36 2 40 25 1 6 5 12 8 15 4 3 4 1 0 -4 -10 -12 11 -48 23 -40 6 4 6
11 -1 19 -7 8 -8 20 -4 26 4 8 3 9 -4 5 -6 -4 -17 2 -24 13 -9 15 -15 17 -25
9 -10 -8 -18 -6 -31 6 -20 18 -29 20 -35 9z m23 -19 c0 -8 4 -13 9 -9 5 3 13
0 17 -6 5 -8 9 -8 14 1 4 7 13 9 19 6 6 -4 8 -13 4 -19 -4 -7 -8 -15 -9 -19
-1 -5 -2 -10 -3 -13 0 -3 -10 -1 -21 5 -16 9 -22 6 -36 -15 -12 -18 -20 -22
-29 -15 -7 6 -15 6 -22 -1 -8 -8 -13 -8 -17 0 -4 6 -12 11 -18 11 -7 0 -6 -5
1 -14 8 -9 8 -16 2 -20 -11 -7 -18 2 -17 24 1 8 8 15 16 15 8 -1 30 10 49 23
27 20 35 22 42 11 7 -11 9 -11 9 -1 0 7 -6 15 -13 18 -15 5 -19 34 -5 34 4 0
8 -7 8 -16z m-64 -146 l19 -23 -25 20 c-14 11 -27 21 -29 22 -2 2 0 3 6 3 5 0
18 -10 29 -22z"/>
<path d="M3025 9688 c4 -9 14 -19 23 -23 9 -3 13 -3 9 1 -4 4 -1 14 6 23 10
14 10 14 -4 4 -12 -10 -18 -10 -28 0 -10 9 -11 9 -6 -5z"/>
<path d="M2980 9664 c-8 -9 -10 -18 -4 -24 6 -6 14 -2 22 10 14 23 -1 36 -18
14z"/>
<path d="M3533 9706 c-1 -11 1 -15 4 -8 4 10 10 7 22 -10 9 -12 26 -24 39 -24
17 -1 21 1 12 10 -6 6 -18 11 -28 11 -9 0 -16 5 -15 11 1 5 -6 15 -16 21 -14
9 -17 7 -18 -11z"/>
<path d="M6443 9698 c14 -8 16 -13 6 -24 -8 -9 -16 -11 -23 -5 -6 6 -18 6 -25
2 -10 -7 -9 -9 3 -14 9 -4 13 -14 11 -27 -2 -11 0 -20 4 -20 16 0 20 13 10 31
-7 15 -6 17 6 13 8 -3 13 -10 10 -14 -3 -5 -1 -11 3 -14 10 -6 9 -36 0 -52 -6
-9 -4 -37 2 -54 1 -3 2 -9 1 -13 -1 -5 3 -6 9 -2 6 3 8 11 5 16 -3 5 2 6 12 3
15 -5 16 -4 3 6 -13 10 -12 11 3 6 10 -3 16 -2 13 3 -3 4 5 8 17 7 12 0 22 -6
22 -13 0 -6 3 -15 7 -19 4 -4 2 -14 -5 -22 -9 -12 -6 -11 15 2 17 11 28 14 33
6 3 -6 11 -7 17 -4 7 4 8 2 4 -5 -4 -6 -12 -8 -18 -5 -6 4 -9 1 -6 -7 3 -8 11
-14 18 -14 21 0 20 -34 -2 -49 -11 -8 -17 -19 -13 -26 5 -8 11 -8 19 -1 7 6
17 7 22 3 5 -4 6 -3 2 2 -4 5 -4 14 2 21 6 7 4 21 -5 39 -8 15 -13 32 -10 36
3 5 0 12 -6 15 -5 4 -8 14 -5 22 3 8 1 11 -4 8 -6 -3 -10 -1 -10 4 0 6 4 11 9
11 6 0 9 9 8 19 -1 11 -6 17 -12 13 -5 -4 -14 -7 -20 -9 -5 -1 -20 -4 -32 -7
-80 -20 -89 -17 -67 25 8 17 18 28 21 25 3 -3 14 4 24 16 20 23 24 32 10 24
-11 -7 -33 18 -29 34 2 8 -12 13 -37 15 -30 3 -35 1 -22 -7z m53 -30 c16 -18
25 -30 20 -26 -5 4 -20 -7 -34 -25 -14 -17 -22 -25 -19 -15 3 9 3 19 -1 22
-11 11 -12 45 -2 51 6 4 8 11 5 16 -12 19 2 8 31 -23z m82 -110 c-1 -7 3 -24
10 -38 12 -23 12 -24 -2 -6 -10 12 -16 15 -16 7 0 -7 -6 -11 -12 -8 -7 2 -13
8 -13 13 0 5 -4 14 -8 21 -5 8 -1 11 13 8 11 -2 20 0 20 6 0 5 2 9 5 9 3 0 5
-6 3 -12z m-113 -7 c3 -5 2 -12 -3 -15 -5 -3 -9 1 -9 9 0 17 3 19 12 6z m165
-124 c0 -2 -10 -12 -22 -23 l-23 -19 19 23 c18 21 26 27 26 19z"/>
<path d="M6469 9679 c-10 -47 3 -73 20 -40 8 14 7 22 -4 31 -8 7 -15 11 -16 9z"/>
<path d="M6553 9535 c0 -8 4 -12 9 -9 5 3 6 10 3 15 -9 13 -12 11 -12 -6z"/>
<path d="M6351 9657 c-7 -7 0 -19 20 -38 34 -31 32 -49 -5 -45 -12 2 -32 -4
-42 -12 -16 -12 -16 -14 -2 -9 25 9 32 -9 9 -25 -19 -14 -19 -14 0 -26 23 -14
24 -30 4 -56 -14 -18 -16 -19 -34 -2 -20 18 -30 12 -26 -16 2 -10 -1 -18 -6
-18 -6 0 -8 -4 -4 -9 3 -5 1 -12 -5 -16 -6 -4 -8 -11 -4 -17 3 -5 -6 -22 -21
-38 -15 -15 -27 -31 -26 -34 3 -18 0 -27 -8 -22 -10 7 -34 -18 -25 -27 3 -3
-4 -10 -15 -17 -12 -6 -21 -8 -21 -4 0 3 -7 1 -16 -7 -18 -15 -101 -20 -126
-7 -12 6 -15 4 -13 -10 2 -9 4 -21 4 -26 1 -4 8 -6 16 -2 8 3 33 -1 55 -9 22
-8 40 -12 40 -10 0 3 11 1 23 -4 31 -12 57 3 39 21 -9 9 -12 8 -12 -7 0 -17
-2 -18 -10 -5 -15 23 -12 29 9 25 14 -3 18 1 14 11 -3 8 0 14 7 14 6 0 9 -4 5
-9 -3 -5 -1 -12 4 -15 5 -4 13 -1 17 5 5 8 3 9 -7 4 -11 -6 -12 -5 -2 5 18 20
28 4 12 -17 -12 -16 -12 -17 1 -7 18 14 51 14 43 1 -3 -6 -1 -7 5 -3 15 9 24
-10 9 -22 -14 -11 -48 -12 -41 -1 2 5 12 5 22 2 14 -5 15 -3 5 7 -10 11 -15
11 -27 0 -9 -7 -13 -16 -10 -21 6 -11 84 -7 84 5 0 5 7 3 15 -4 8 -6 20 -8 26
-4 7 4 28 9 46 10 19 1 40 7 48 14 8 7 15 9 15 5 0 -4 6 -2 13 4 8 6 17 8 21
4 4 -4 9 2 12 14 4 13 13 20 22 19 10 -2 34 14 55 36 20 21 34 38 30 38 -4 0
3 7 15 16 12 8 20 19 17 24 -3 4 2 11 11 14 8 3 12 11 9 17 -4 5 -9 8 -12 5
-3 -3 -18 4 -34 15 -29 20 -36 61 -11 56 8 -1 16 6 17 16 2 9 0 15 -5 12 -13
-8 -33 23 -24 37 5 8 -2 7 -17 -4 -15 -9 -31 -13 -38 -9 -10 6 -8 10 4 15 13
5 15 9 6 20 -6 7 -8 16 -4 19 17 18 -12 4 -43 -19 -19 -15 -35 -24 -35 -20 -3
14 -7 26 -9 29 -6 7 -8 42 -2 51 3 6 7 19 7 30 2 16 0 17 -9 4 -10 -14 -14
-14 -31 -2 -13 10 -15 14 -4 14 12 0 12 2 0 9 -8 5 -9 10 -2 12 5 2 0 9 -14
15 -16 8 -27 8 -34 1z m29 -19 c10 -21 10 -21 -3 -6 -8 10 -18 14 -22 10 -5
-4 -5 -1 -1 6 10 17 14 15 26 -10z m56 -50 c5 4 0 -3 -10 -15 -11 -13 -14 -23
-8 -23 7 0 11 -3 11 -7 -1 -5 0 -11 1 -15 1 -5 3 -11 5 -15 6 -24 18 -43 27
-43 5 0 7 4 3 9 -7 12 29 33 39 24 3 -3 6 -1 6 6 0 7 5 9 11 6 6 -5 4 -12 -8
-20 -17 -13 -17 -14 0 -21 10 -3 16 -13 13 -20 -3 -7 -1 -16 4 -19 6 -4 11 -1
11 4 3 26 4 30 10 35 3 3 16 -6 30 -21 13 -15 16 -21 7 -14 -12 9 -18 10 -19
2 -2 -11 -5 -25 -9 -38 -1 -5 -2 -11 -1 -15 2 -12 -4 -10 -29 12 -17 15 -26
17 -36 9 -18 -15 -6 -38 17 -34 10 2 21 0 24 -6 4 -5 13 -5 25 1 20 11 39 -3
20 -15 -5 -3 -10 -11 -10 -17 0 -7 5 -6 15 2 16 13 34 6 31 -13 -1 -7 -16 -27
-33 -44 -17 -17 -29 -34 -25 -38 3 -3 -2 -3 -11 1 -12 4 -17 2 -15 -7 2 -7 -6
-13 -17 -13 -21 -1 -46 -26 -38 -39 2 -4 1 -7 -4 -6 -4 1 -11 0 -15 -1 -5 -1
-12 -4 -18 -5 -5 -1 -12 -4 -15 -5 -3 -1 -9 -4 -15 -5 -5 -1 -11 -3 -12 -4 -2
-2 -14 -5 -28 -7 -24 -4 -24 -4 -5 11 19 14 19 15 1 8 -15 -5 -18 -3 -14 9 4
8 1 15 -7 15 -8 0 -12 -9 -9 -23 5 -26 -13 -41 -28 -26 -8 8 -18 8 -32 1 -19
-9 -19 -9 -4 4 15 12 15 14 -3 25 -10 7 -21 11 -23 10 -2 -2 -13 5 -24 15 -12
11 -25 16 -31 13 -5 -4 -12 -2 -15 3 -4 5 -2 12 4 16 6 4 8 10 5 15 -3 5 -1
11 4 14 5 4 12 2 16 -4 12 -19 22 -10 20 18 -1 17 7 37 23 54 13 14 21 31 17
37 -3 6 0 14 8 17 9 3 13 16 12 35 -3 29 -2 30 17 12 19 -17 20 -17 34 2 8 10
14 13 14 7 0 -7 5 -12 11 -12 5 0 7 6 3 13 -4 6 1 5 12 -4 10 -9 26 -15 35
-14 18 3 22 -23 6 -42 -6 -9 -6 -13 1 -13 12 0 33 25 26 32 -2 3 2 8 10 11 10
4 13 1 10 -7 -3 -8 1 -17 8 -22 7 -4 10 -4 6 1 -4 4 -4 13 1 19 6 7 3 20 -8
35 -14 18 -20 21 -26 11 -5 -9 -4 -11 3 -6 7 4 12 2 12 -3 0 -14 -17 -14 -25
0 -4 6 -13 8 -21 5 -8 -3 -17 1 -20 9 -4 8 -9 13 -13 10 -5 -2 -17 9 -29 24
-18 25 -19 31 -7 41 8 6 19 9 24 6 5 -4 12 -2 16 4 3 5 1 10 -4 10 -6 0 -11 5
-11 12 0 6 3 8 7 5 10 -10 34 14 26 27 -4 7 -1 6 9 -1 8 -7 19 -9 24 -5z
m-284 -387 c-4 -11 -7 -11 -10 -2 -3 8 -8 7 -17 -6 -10 -13 -10 -20 -2 -25 7
-5 1 -6 -13 -4 -14 3 -26 5 -27 7 -2 1 -7 3 -13 4 -5 1 -12 4 -15 5 -3 1 -9 3
-14 4 -5 0 -12 4 -15 7 -3 3 16 5 44 4 29 -1 51 3 54 10 2 6 11 12 19 12 9 0
13 -6 9 -16z"/>
<path d="M6401 9567 c-6 -8 -9 -16 -7 -18 3 -2 -4 -15 -15 -29 -11 -15 -17
-18 -13 -7 3 9 1 17 -4 17 -20 0 -20 -15 -1 -39 17 -21 25 -17 20 11 0 4 10 2
24 -4 14 -6 25 -16 25 -21 0 -5 -7 -4 -15 3 -20 17 -30 7 -16 -17 7 -12 10
-13 11 -4 0 10 3 11 13 2 20 -16 28 -2 15 23 -7 11 -12 25 -13 29 0 4 -5 11
-10 15 -12 8 -13 22 -2 40 11 16 2 15 -12 -1z m4 -47 c3 -5 1 -10 -4 -10 -6 0
-11 5 -11 10 0 6 2 10 4 10 3 0 8 -4 11 -10z"/>
<path d="M6480 9490 c-13 -9 -13 -10 0 -10 12 0 12 -2 1 -9 -10 -7 -11 -13 -1
-31 6 -12 14 -19 18 -16 3 3 16 -1 28 -9 14 -9 25 -11 29 -5 3 6 4 10 0 10 -3
0 -1 9 5 19 7 15 7 22 -2 27 -7 4 -10 4 -6 -1 4 -4 3 -16 -3 -27 -8 -15 -13
-17 -25 -8 -7 7 -12 16 -9 20 3 4 -2 13 -10 20 -8 7 -12 16 -9 21 7 11 3 11
-16 -1z m23 -46 c-4 -12 -8 -13 -14 -3 -9 15 -2 32 11 24 5 -3 6 -13 3 -21z"/>
<path d="M6293 9413 c0 -36 -3 -44 -15 -37 -7 4 -8 3 -4 -5 4 -6 13 -8 19 -5
7 4 -3 -7 -22 -23 -30 -26 -54 -72 -30 -57 5 3 9 1 9 -5 0 -5 -6 -12 -12 -14
-9 -4 -9 -6 1 -6 11 -1 10 -5 -4 -15 -15 -10 -22 -11 -30 -2 -5 6 -9 9 -8 7 2
-2 -3 -11 -10 -19 -10 -13 -9 -14 1 -8 8 5 21 1 33 -10 10 -9 19 -13 19 -9 0
4 9 0 20 -10 11 -10 20 -14 20 -9 0 5 7 -2 16 -14 19 -27 33 -28 31 -2 -1 12
-7 18 -13 16 -7 -3 -18 3 -26 12 -11 13 -11 15 2 8 8 -4 6 0 -4 8 -11 9 -15
16 -9 16 16 0 34 -25 25 -36 -4 -4 0 -4 8 2 24 17 63 16 56 -1 -3 -8 0 -14 7
-12 7 1 11 -4 9 -12 -3 -12 0 -12 12 -1 9 7 16 9 16 5 0 -4 7 -2 15 5 8 7 15
9 15 5 0 -5 9 0 20 10 11 10 17 22 14 26 -5 9 5 12 38 12 9 0 17 2 16 6 -2 19
3 32 11 27 5 -3 22 8 40 24 17 17 25 30 18 30 -8 0 -7 4 3 10 9 6 10 10 3 10
-6 0 -15 -5 -18 -10 -5 -8 -11 -7 -21 1 -12 10 -12 14 3 26 16 13 16 13 -4 4
-13 -7 -24 -7 -27 -2 -4 5 -14 8 -24 6 -9 -1 -27 3 -39 11 -19 12 -24 12 -35
-5 -11 -16 -16 -17 -31 -6 -16 11 -16 13 -1 19 17 7 14 30 -4 32 -7 1 -15 3
-19 4 -19 6 -39 5 -50 -4 -8 -5 -18 -4 -27 3 -10 9 -13 7 -13 -6z m97 -3 c3
-1 8 -2 13 -1 12 2 8 -11 -9 -24 -14 -10 -13 -13 10 -28 24 -16 26 -16 37 5
10 19 13 20 23 7 6 -9 23 -15 38 -14 17 1 36 -7 49 -21 12 -13 27 -21 33 -17
6 3 0 -5 -14 -19 -23 -22 -26 -23 -40 -8 -8 9 -11 10 -6 2 7 -9 5 -16 -3 -21
-7 -5 -12 -11 -12 -15 1 -3 -2 -6 -6 -7 -19 -2 -43 -21 -38 -29 5 -8 -11 -23
-27 -26 -5 -1 -9 -2 -10 -4 -14 -10 -40 -4 -49 12 -6 11 -17 17 -24 14 -8 -3
-17 -1 -20 4 -9 15 -27 12 -20 -2 4 -7 -2 -3 -13 9 -24 27 -47 12 -31 -21 9
-20 9 -20 -10 2 -20 23 -37 30 -25 10 5 -7 3 -8 -6 -3 -10 6 -9 11 5 22 22 15
28 42 14 59 -7 8 -1 18 18 33 15 11 33 25 40 31 7 6 18 9 24 8 6 -2 13 2 16 9
2 7 -5 10 -20 9 -14 -2 -24 2 -24 10 0 6 6 10 13 7 6 -2 14 0 18 5 4 7 39 9
56 2z"/>
<path d="M6334 9398 c-3 -5 -2 -8 3 -7 29 5 35 -2 18 -21 -10 -11 -22 -17 -26
-14 -5 3 -12 -2 -15 -10 -3 -9 -10 -14 -14 -11 -10 6 -52 -30 -44 -38 9 -8 35
4 29 13 -3 5 0 12 6 16 8 5 9 3 4 -6 -6 -9 -4 -11 5 -5 9 5 11 4 6 -3 -5 -8
-1 -10 9 -5 13 4 14 7 3 14 -9 6 -6 8 10 6 12 0 22 -5 22 -10 0 -5 6 -4 14 2
10 9 17 7 27 -6 12 -15 12 -16 -1 -9 -8 4 -6 0 4 -8 11 -9 16 -16 11 -16 -4 0
0 -9 10 -20 10 -11 22 -17 26 -14 5 3 9 0 9 -6 0 -6 -8 -10 -17 -8 -12 2 -18
-3 -17 -14 1 -10 -4 -14 -12 -11 -10 4 -11 9 -4 18 14 16 0 28 -17 13 -11 -9
-13 -8 -11 2 2 7 -3 15 -11 18 -8 2 -11 0 -7 -6 3 -6 1 -14 -5 -18 -7 -4 -9
-3 -5 4 3 6 1 14 -4 17 -8 5 -6 13 4 24 9 10 13 21 9 24 -9 10 -25 9 -19 -1 7
-12 -12 -38 -21 -29 -4 5 -1 13 7 18 13 9 13 10 0 6 -8 -2 -14 -13 -13 -23 1
-18 1 -18 -13 0 -14 20 -24 18 -28 -6 -1 -7 -6 -20 -11 -28 -7 -12 -5 -12 11
1 19 17 49 15 39 -2 -4 -5 0 -6 8 -3 8 3 18 1 21 -5 4 -6 13 -8 20 -5 8 3 20
-3 27 -13 16 -21 45 -24 41 -3 -3 11 0 11 12 0 16 -12 17 -11 20 11 2 16 37
39 50 32 6 -3 8 -3 4 2 -4 4 -3 14 3 21 6 8 7 14 0 18 -6 4 -8 13 -4 22 5 12
8 12 20 -5 8 -12 20 -18 29 -14 27 10 -21 51 -57 48 -19 -2 -33 3 -36 12 -4
11 -9 9 -20 -7 l-14 -20 -30 21 c-24 17 -27 24 -18 35 6 8 10 14 8 15 -25 5
-51 4 -55 -3z m73 -71 c4 -1 7 -5 6 -9 -6 -16 13 -7 25 12 13 22 35 19 26 -4
-3 -7 2 -13 11 -13 9 0 14 6 11 12 -2 6 2 12 9 12 10 0 11 -5 5 -17 -6 -11 -5
-21 2 -28 12 -12 -28 -42 -52 -39 -22 4 -41 17 -35 26 2 4 -7 23 -20 41 -14
19 -25 29 -25 22 0 -13 -35 -11 -47 3 -5 4 -3 5 3 2 7 -4 18 0 25 9 12 15 15
14 31 -5 9 -12 21 -23 25 -24z m133 -7 c6 -11 8 -20 6 -20 -3 0 -10 9 -16 20
-6 11 -8 20 -6 20 3 0 10 -9 16 -20z m-205 -70 c3 -6 -1 -7 -9 -4 -18 7 -21
14 -7 14 6 0 13 -4 16 -10z"/>
<path d="M6438 9318 c-28 -45 -5 -68 45 -45 14 7 16 11 7 22 -7 8 -17 13 -23
12 -7 -1 -11 6 -11 16 2 22 -1 22 -18 -5z m34 -23 c3 0 10 -4 15 -9 5 -5 3 -6
-4 -2 -8 4 -13 2 -14 -6 0 -10 -2 -11 -6 0 -4 9 -8 10 -18 2 -12 -10 -14 -4
-6 28 1 2 7 0 14 -5 6 -4 15 -8 19 -8z"/>
<path d="M6365 9310 c-3 -5 -3 -10 1 -10 4 0 -1 -10 -12 -22 -10 -12 -13 -18
-6 -14 7 4 19 2 27 -4 8 -7 15 -9 15 -5 0 4 8 1 17 -6 9 -8 5 2 -10 22 -15 20
-24 39 -20 42 3 4 4 7 0 7 -3 0 -9 -4 -12 -10z m19 -36 c3 -8 2 -12 -4 -9 -6
3 -10 10 -10 16 0 14 7 11 14 -7z"/>
<path d="M6086 9178 c3 -5 10 -6 15 -3 13 9 11 12 -6 12 -8 0 -12 -4 -9 -9z"/>
<path d="M3643 9643 c4 -6 3 -14 -3 -18 -6 -4 -7 -12 -1 -23 11 -19 62 -25 54
-6 -2 6 0 15 6 18 14 9 2 36 -17 36 -13 0 -12 -3 4 -15 19 -15 19 -15 -1 -8
-11 3 -26 11 -34 17 -11 8 -13 8 -8 -1z m15 -48 c-3 -3 -9 2 -12 12 -6 14 -5
15 5 6 7 -7 10 -15 7 -18z"/>
<path d="M3063 9545 c0 -8 4 -12 9 -9 5 3 6 10 3 15 -9 13 -12 11 -12 -6z"/>
<path d="M3113 9525 c0 -8 4 -15 9 -15 4 0 8 4 8 9 0 6 -4 12 -8 15 -5 3 -9
-1 -9 -9z"/>
<path d="M3030 9379 c0 -5 5 -7 10 -4 6 3 10 8 10 11 0 2 -4 4 -10 4 -5 0 -10
-5 -10 -11z"/>
<path d="M3061 9314 c-21 -26 -21 -26 -1 -54 11 -15 16 -30 12 -34 -4 -4 -7
-15 -7 -24 0 -11 -7 -16 -18 -14 -10 2 -24 -2 -32 -8 -7 -6 -19 -9 -26 -8 -17
4 -18 -22 -1 -49 12 -19 11 -23 -7 -32 -11 -6 -24 -10 -28 -10 -4 1 -16 -1
-25 -5 -16 -7 -16 -10 -2 -31 14 -22 14 -24 -8 -36 -13 -7 -24 -12 -25 -11 -2
1 -9 2 -15 2 -10 0 -10 -2 0 -9 8 -4 13 -11 13 -15 -1 -3 -1 -14 -1 -23 0 -18
15 -8 15 10 1 7 6 11 13 10 7 -2 12 2 12 8 0 5 4 8 9 5 5 -3 14 1 21 9 7 8 17
12 23 8 7 -4 2 6 -11 21 -24 31 -28 46 -11 46 5 0 8 -4 5 -9 -3 -5 3 -20 13
-32 19 -24 20 -24 38 -5 17 19 17 19 0 6 -26 -19 -46 2 -26 27 13 17 13 17 -5
3 -18 -14 -19 -14 -5 7 8 13 16 18 20 12 4 -7 8 -5 12 4 3 8 2 18 -1 23 -4 5
-3 6 2 2 5 -3 14 -4 21 -2 7 3 20 -4 28 -16 l15 -21 22 30 c12 17 18 31 14 31
-4 0 1 6 12 14 16 12 17 17 6 28 -11 11 -12 10 -6 -6 6 -16 4 -18 -10 -13 -11
5 -15 3 -10 -5 5 -7 3 -8 -6 -3 -9 6 -11 4 -5 -5 6 -9 4 -11 -5 -5 -7 4 -15 3
-19 -4 -5 -7 -15 -1 -29 18 -20 28 -13 35 17 17 10 -7 12 -6 6 4 -5 9 -4 11 4
6 6 -4 9 -12 6 -17 -4 -5 -1 -9 4 -9 6 0 11 5 11 11 0 6 6 9 13 6 8 -3 14 1
14 8 0 8 -10 12 -26 10 -14 -2 -20 -2 -13 1 10 5 10 9 0 22 -9 13 -7 12 9 -2
22 -18 22 -18 20 3 -1 13 -6 20 -14 17 -7 -3 -10 1 -6 9 3 8 9 13 13 10 5 -3
12 0 16 7 15 24 11 48 -11 68 l-23 21 -21 -27z m54 -36 c-2 -27 -34 -33 -51
-10 -15 21 -9 33 14 25 14 -6 15 -4 5 9 -7 8 -10 18 -6 21 11 12 40 -22 38
-45z m-80 -136 c-8 -8 29 -31 40 -24 24 15 34 11 22 -9 -14 -23 -21 -24 -37
-4 -7 9 -18 14 -25 11 -6 -2 -22 5 -36 15 -15 13 -18 17 -6 13 10 -4 17 -3 16
2 -4 21 2 26 16 14 9 -7 13 -15 10 -18z m-77 -140 c-6 -7 -13 -10 -16 -7 -3 3
-15 -1 -27 -9 -18 -12 -22 -12 -22 -1 0 8 3 12 7 10 4 -2 16 3 28 11 18 13 20
19 11 37 -9 19 -8 19 10 -3 14 -18 17 -28 9 -38z"/>
<path d="M3089 9309 c5 -6 7 -18 4 -25 -4 -12 -9 -12 -22 -2 -13 10 -14 10 -4
-2 7 -8 19 -15 26 -16 16 -2 15 32 -1 46 -8 7 -9 7 -3 -1z"/>
<path d="M3014 9146 c1 -8 5 -18 8 -22 4 -3 5 1 4 10 -1 8 -5 18 -8 22 -4 3
-5 -1 -4 -10z"/>
<path d="M3145 9310 c-3 -5 -3 -10 2 -10 4 0 1 -4 -7 -10 -8 -5 -11 -12 -7
-17 5 -4 12 -1 17 7 6 10 10 11 10 3 0 -7 -11 -20 -24 -28 -27 -18 -28 -31 -3
-69 17 -26 17 -27 -13 -71 -17 -24 -34 -46 -38 -49 -10 -6 -34 9 -32 20 4 21
-18 12 -39 -17 -24 -32 -22 -51 3 -30 8 7 17 8 20 3 6 -11 -26 -43 -46 -45 -7
-2 -24 -10 -37 -19 -13 -10 -27 -15 -31 -13 -4 2 -7 -1 -7 -8 0 -7 -4 -20 -8
-29 -5 -12 -2 -20 9 -24 9 -3 13 -10 10 -15 -3 -5 2 -12 10 -15 9 -3 13 -11 9
-17 -4 -6 0 -8 10 -4 12 5 17 1 17 -13 0 -11 4 -20 8 -20 21 0 6 34 -22 52
-20 12 -23 17 -10 14 24 -7 63 27 45 39 -6 3 -14 0 -17 -9 -3 -8 -14 -14 -24
-13 -10 1 -16 5 -13 10 2 4 0 14 -7 22 -8 10 -8 15 1 21 7 4 9 3 6 -3 -3 -5 0
-10 7 -10 8 0 12 7 9 16 -2 9 2 6 9 -7 8 -12 17 -19 21 -16 4 4 -1 16 -10 27
-11 12 -12 17 -4 12 9 -5 12 -4 8 2 -4 7 6 10 28 8 19 -1 32 2 29 6 -2 4 4 6
15 4 11 -2 22 3 25 10 3 9 0 12 -8 9 -26 -10 -24 11 2 30 15 12 22 14 17 5 -4
-8 -5 -11 0 -7 4 4 15 2 23 -5 13 -10 14 -9 7 2 -5 9 -4 12 3 7 11 -7 11 12
-1 32 -5 7 -4 12 2 12 6 0 11 -5 11 -12 0 -6 6 -3 14 7 10 14 11 25 5 37 -10
18 -9 19 13 22 6 0 13 7 16 15 3 8 0 11 -6 7 -6 -3 -14 -1 -18 5 -5 8 -3 9 6
4 9 -6 11 -4 5 5 -5 9 -4 11 3 6 8 -5 10 -2 6 9 -6 14 -8 14 -19 -2 -11 -15
-12 -14 -10 10 2 15 -1 25 -6 22 -5 -4 -6 1 -3 10 5 13 9 12 24 -5 10 -12 21
-17 23 -13 6 10 -7 35 -17 34 -3 -1 -6 2 -6 7 0 4 10 7 22 7 12 0 23 6 26 13
3 10 8 8 19 -5 8 -10 12 -13 9 -8 -2 6 5 12 17 12 12 1 17 -1 12 -5 -6 -4 -12
-16 -14 -27 -3 -20 -3 -20 18 -1 19 17 26 15 22 -6 0 -5 4 -8 10 -8 6 0 9 7 5
15 -4 13 -2 14 14 5 11 -6 20 -13 20 -16 0 -3 -5 -2 -12 2 -7 5 -8 3 -3 -6 6
-9 4 -11 -5 -5 -9 5 -11 4 -6 -3 4 -8 2 -10 -7 -6 -8 3 -18 1 -22 -5 -4 -7 0
-8 11 -4 14 5 16 3 11 -13 -7 -19 -7 -19 8 0 11 14 15 16 15 5 1 -10 3 -9 11
4 12 21 23 22 44 1 13 -13 18 -14 31 -3 21 17 2 34 -38 34 -25 0 -32 4 -33 22
-1 13 -5 26 -10 30 -4 5 -6 1 -3 -8 4 -9 1 -16 -7 -16 -7 0 -11 7 -8 16 3 11
1 10 -7 -2 -11 -17 -13 -17 -30 -2 -9 9 -21 15 -26 13 -5 -1 -19 3 -31 10 -19
10 -24 9 -36 -8 -14 -20 -15 -20 -22 -3 -5 10 -7 21 -7 26 3 10 -6 9 -13 -3z
m58 -25 c-3 -9 -8 -14 -10 -11 -3 3 -2 9 2 15 9 16 15 13 8 -4z m212 -64 c3
-5 0 -13 -6 -17 -7 -4 -9 -3 -5 4 3 5 0 13 -6 15 -9 4 -10 6 -1 6 6 1 14 -3
18 -8z m-271 -122 c-3 -5 -10 -7 -15 -3 -5 3 -7 10 -3 15 3 5 10 7 15 3 5 -3
7 -10 3 -15z m-30 -40 c-3 -5 -10 -7 -15 -3 -5 3 -7 10 -3 15 3 5 10 7 15 3 5
-3 7 -10 3 -15z m-63 -2 c-1 -12 -15 -9 -19 4 -3 6 1 10 8 8 6 -3 11 -8 11
-12z m-5 -49 c4 -7 4 -10 -1 -6 -4 4 -15 2 -24 -5 -14 -11 -14 -10 -2 6 16 20
18 21 27 5z m-116 -88 c0 -5 -5 -10 -11 -10 -5 0 -7 5 -4 10 3 6 8 10 11 10 2
0 4 -4 4 -10z"/>
<path d="M3550 9295 c0 -2 7 -11 16 -19 9 -9 11 -16 4 -16 -6 0 -8 -5 -5 -10
7 -12 -29 -62 -38 -53 -4 3 -9 -2 -13 -11 -3 -9 -10 -16 -16 -16 -5 0 -6 5 -2
12 4 7 3 8 -5 4 -6 -4 -9 -12 -6 -17 4 -5 4 -13 0 -19 -8 -13 -36 0 -28 14 4
7 1 7 -7 -1 -10 -10 -21 -6 -53 19 -35 28 -40 30 -49 15 -5 -10 -13 -15 -18
-12 -5 3 -11 1 -15 -5 -4 -6 -11 -8 -16 -4 -5 3 -7 10 -3 15 3 5 2 8 -3 7 -7
-3 -15 7 -12 15 0 1 2 10 4 20 3 17 2 17 -13 4 -23 -20 -48 -11 -30 11 8 10 9
13 1 9 -6 -4 -15 -3 -18 3 -5 8 -11 8 -19 1 -7 -6 -16 -7 -21 -3 -4 4 -3 -3 4
-15 7 -14 8 -24 1 -28 -6 -3 -8 -18 -5 -33 5 -28 -11 -56 -27 -46 -6 4 -4 -4
2 -17 10 -17 10 -24 1 -27 -16 -5 -14 -19 4 -19 8 0 11 5 8 10 -3 6 -1 7 6 3
6 -4 11 -4 10 1 -1 4 0 11 1 16 1 4 3 10 4 15 2 12 36 57 41 55 3 -2 6 -3 8
-2 25 7 47 7 47 -2 0 -5 -4 -7 -10 -4 -5 3 -10 2 -10 -4 0 -5 9 -9 20 -8 11 1
20 6 20 12 0 5 4 4 9 -3 7 -11 9 -10 15 3 3 9 10 14 15 10 5 -3 12 -1 16 5 4
6 11 8 16 4 6 -4 6 -11 -2 -20 -9 -12 -15 -12 -27 -2 -13 11 -15 10 -9 -5 4
-10 3 -16 -2 -12 -5 3 -11 0 -13 -5 -2 -6 -10 -12 -18 -13 -25 -4 -41 -18 -34
-29 4 -6 2 -8 -3 -5 -6 4 -22 -2 -35 -13 -14 -11 -28 -17 -30 -14 -3 2 -11 -2
-18 -11 -16 -19 -31 -20 -24 -1 4 10 0 13 -13 11 -10 -2 -20 -4 -22 -4 -2 -1
6 -10 19 -21 13 -11 18 -20 12 -20 -7 0 -14 1 -15 3 -2 1 -12 -5 -21 -13 -10
-8 -25 -16 -35 -17 -19 -4 -44 -11 -51 -13 -3 -2 -14 -3 -25 -4 -23 -1 -33
-18 -14 -25 6 -2 9 1 5 7 -3 6 1 9 11 7 10 -1 25 3 33 9 13 10 13 9 1 -6 -7
-10 -17 -15 -22 -12 -5 3 -9 0 -9 -5 0 -6 -8 -11 -17 -11 -15 0 -16 -2 -3 -10
12 -8 11 -13 -8 -33 -20 -21 -21 -25 -7 -37 8 -7 12 -16 9 -21 -3 -5 0 -9 7
-9 9 0 9 -3 0 -14 -8 -10 -9 -16 -1 -21 5 -3 10 -3 10 0 0 4 13 -3 29 -14 15
-11 31 -18 35 -14 3 3 6 1 6 -5 0 -7 5 -12 11 -12 5 0 7 5 3 11 -4 8 1 9 17 4
21 -7 22 -6 10 8 -7 9 -17 15 -21 12 -4 -3 -13 2 -20 10 -9 10 -9 15 -1 15 6
0 11 -5 11 -12 0 -6 6 -4 13 7 9 11 19 15 28 11 8 -4 5 0 -5 8 -25 20 -8 21
20 1 12 -8 25 -11 29 -7 5 4 5 1 0 -7 -6 -10 -4 -12 5 -6 9 5 11 4 6 -3 -5 -8
-1 -10 11 -6 14 5 15 4 4 -4 -11 -8 -8 -10 11 -9 18 2 24 6 20 17 -3 9 2 7 12
-5 l16 -20 -6 20 -7 20 17 -20 c16 -19 16 -19 4 8 -7 17 -14 23 -18 16 -6 -8
-9 -8 -14 0 -4 6 -2 11 4 11 6 0 8 5 5 11 -5 6 -12 4 -22 -8 -8 -10 -11 -12
-8 -5 6 11 3 12 -12 3 -14 -7 -23 -7 -31 1 -7 7 -12 8 -12 3 0 -5 -7 0 -16 11
-8 10 -13 14 -10 8 2 -5 -5 -10 -17 -10 -12 1 -23 -3 -24 -7 -4 -19 -38 -35
-54 -26 -9 4 -19 6 -23 4 -3 -3 -4 -2 -1 1 2 4 0 16 -6 27 -8 14 -8 18 0 12 6
-3 11 -3 10 2 -1 4 0 10 1 13 8 22 7 39 -3 34 -7 -4 0 5 15 20 18 17 33 24 45
19 16 -6 17 -5 3 13 -14 18 -14 18 4 4 18 -13 19 -13 14 1 -5 12 -1 15 19 13
17 -2 23 2 20 11 -4 9 1 11 15 7 14 -3 19 -1 14 6 -4 7 -2 13 3 13 6 1 16 2
22 3 7 0 15 10 20 21 4 12 8 14 8 6 1 -11 5 -10 16 5 8 10 15 15 15 11 0 -9
19 6 57 43 26 25 26 25 14 2 -7 -13 -10 -26 -8 -29 6 -6 32 39 29 50 -1 4 1 6
6 6 4 -1 10 0 15 1 12 4 26 7 38 9 5 0 7 6 3 12 -5 8 -1 8 13 0 11 -6 22 -9
24 -8 2 1 -6 -6 -18 -16 -22 -18 -23 -37 -2 -37 6 0 8 4 5 9 -3 5 5 16 19 25
23 15 29 13 26 -6 0 -5 4 -8 10 -8 6 0 8 8 5 18 -6 16 -5 16 7 0 12 -16 14
-15 28 3 47 68 57 79 61 68 3 -9 7 -7 11 5 4 9 3 15 -2 11 -11 -6 -8 22 4 32
4 4 5 2 0 -6 -6 -10 -4 -12 5 -6 9 6 11 4 5 -4 -6 -10 -3 -11 14 -2 11 7 21
14 21 17 0 3 -5 2 -10 -1 -15 -9 -40 14 -33 31 3 8 1 14 -3 15 -5 0 -17 2 -26
4 -10 2 -18 2 -18 0z m-324 -47 c4 -7 3 -8 -4 -4 -16 10 -15 -2 1 -18 21 -21
23 -21 43 -6 18 14 18 14 5 -2 -7 -10 -10 -18 -5 -18 10 -1 -27 -24 -38 -25
-4 0 -19 -15 -33 -34 -14 -19 -25 -30 -25 -24 0 6 7 16 15 23 9 8 13 23 10 41
-3 15 0 31 5 34 6 4 8 11 5 16 -6 8 2 29 10 29 2 0 7 -5 11 -12z m322 -64
c-37 -52 -44 -58 -52 -45 -4 5 3 16 14 24 11 7 17 17 12 22 -4 5 -2 5 4 2 7
-4 19 4 28 18 9 14 19 25 22 25 3 0 -10 -21 -28 -46z m-539 -310 c-6 -7 -15
-11 -21 -8 -5 3 -4 12 3 20 6 7 15 11 21 8 5 -3 4 -12 -3 -20z m96 -43 c3 -5
2 -12 -3 -15 -5 -3 -9 1 -9 9 0 17 3 19 12 6z m119 -23 c-3 -4 -11 -5 -19 -1
-21 7 -19 12 4 10 11 0 18 -5 15 -9z m-162 -12 c3 2 11 -2 17 -10 17 -20 -9
-16 -40 7 -20 14 -20 16 -3 8 12 -6 24 -8 26 -5z"/>
<path d="M3209 9220 c-1 -3 -3 -15 -4 -28 -2 -19 0 -20 13 -10 8 7 18 12 21
10 3 -2 6 1 8 8 1 7 0 7 -4 0 -3 -7 -10 -4 -19 7 -7 10 -14 16 -15 13z"/>
<path d="M3609 9213 c-1 -5 -1 -11 0 -15 1 -7 -5 -9 -24 -8 -9 1 -34 -27 -37
-41 -5 -21 -40 -46 -62 -45 -12 1 -20 7 -18 14 1 9 -3 9 -18 0 -11 -7 -15 -15
-10 -16 6 -2 3 -10 -7 -17 -14 -11 -19 -10 -29 4 -10 13 -9 19 3 34 20 21 10
23 -11 1 -11 -10 -16 -11 -16 -3 0 7 -14 -4 -31 -24 -17 -20 -35 -34 -40 -31
-12 7 -51 -15 -44 -25 3 -5 -2 -11 -10 -14 -10 -4 -12 -1 -9 11 3 9 -1 6 -9
-8 -9 -14 -19 -25 -24 -25 -4 0 -7 -3 -5 -7 1 -5 -2 -8 -8 -8 -5 0 -10 6 -10
13 -1 6 -6 2 -13 -11 -7 -12 -16 -20 -19 -16 -4 3 -11 -4 -18 -15 -6 -12 -16
-21 -23 -20 -9 0 -9 2 1 6 6 2 12 10 12 16 0 6 -11 0 -24 -12 -13 -12 -27 -21
-32 -20 -5 1 -17 -1 -27 -6 -14 -6 -15 -10 -6 -16 7 -4 22 -1 34 7 20 13 23
13 30 -3 5 -10 9 -22 9 -28 1 -5 6 -12 11 -14 6 -2 21 -11 35 -21 22 -16 29
-16 50 -5 18 10 28 10 38 2 13 -10 45 -66 40 -68 -2 0 -23 -2 -48 -4 -32 -2
-51 2 -65 14 -22 19 -65 26 -65 10 0 -5 9 -14 20 -21 11 -7 20 -16 20 -21 0
-4 -4 -6 -8 -3 -4 2 -14 0 -22 -5 -13 -9 -13 -9 0 -7 8 1 26 -4 39 -11 13 -7
21 -8 17 -3 -7 12 11 27 34 27 8 0 20 4 27 8 13 8 12 -18 -2 -30 -4 -4 -6 -3
-2 3 3 6 -5 10 -19 10 -21 0 -36 -14 -16 -17 40 -5 60 -4 56 3 -3 4 -1 8 5 8
5 0 12 -4 15 -8 4 -7 45 -8 54 -2 1 2 6 3 11 4 5 0 12 4 16 8 4 3 19 5 33 3
15 -2 21 -2 15 1 -7 3 -13 10 -13 15 0 11 23 7 32 -6 5 -6 8 -5 8 3 0 7 5 10
10 7 6 -3 10 -2 10 4 0 6 7 8 15 5 18 -7 19 5 4 26 -9 12 -10 11 -4 -5 3 -11
3 -16 -1 -13 -4 4 -16 3 -27 -3 -15 -9 -18 -8 -12 2 5 7 4 10 -3 5 -6 -3 -16
2 -22 11 -11 17 -11 17 -6 0 4 -12 2 -16 -6 -11 -6 4 -8 3 -5 -2 3 -6 2 -16
-4 -24 -6 -11 -9 -11 -9 -2 0 12 -38 11 -60 -3 -5 -3 -10 -1 -10 4 0 6 7 11
16 11 8 0 12 5 9 10 -4 6 -10 8 -15 5 -5 -3 -14 5 -20 17 -11 22 -10 22 4 4
14 -17 18 -14 15 10 0 4 5 11 13 16 10 7 8 8 -5 4 -12 -4 -16 -2 -11 6 4 6 3
8 -3 5 -5 -3 -10 0 -10 8 0 8 4 15 9 15 4 0 8 5 8 12 0 6 -3 8 -6 5 -4 -3 -16
-2 -27 4 -15 9 -18 8 -12 -2 6 -8 4 -10 -5 -4 -9 6 -11 4 -5 -5 6 -9 4 -11 -5
-5 -9 6 -11 4 -5 -6 5 -8 -1 -6 -12 4 -18 16 -21 16 -27 2 -4 -11 -2 -14 6 -9
7 4 8 3 4 -4 -10 -17 -29 -15 -23 2 6 15 -9 16 -31 2 -8 -5 -12 -3 -10 6 2 7
-2 12 -9 11 -6 -1 -14 4 -17 13 -4 10 -2 13 6 8 7 -5 8 -3 3 6 -6 9 -4 11 6 5
11 -7 11 -5 -1 10 -12 15 -12 17 -1 10 10 -6 12 -4 6 5 -5 9 -4 11 3 6 8 -5
10 -1 6 11 -4 13 -3 15 4 5 7 -11 10 -11 16 3 3 9 10 14 15 10 5 -3 12 -1 16
5 4 6 11 7 17 4 7 -4 8 -2 4 4 -5 8 -1 10 11 6 15 -5 16 -4 3 5 -8 6 -10 11
-4 11 5 0 16 -6 23 -12 11 -11 13 -10 8 4 -3 10 -2 20 4 23 5 4 7 11 4 16 -4
5 -1 9 4 9 6 0 11 -5 11 -11 0 -5 5 -7 10 -4 6 4 7 11 4 17 -5 7 -2 8 7 2 20
-12 40 -14 34 -3 -4 5 2 6 11 2 14 -5 16 -3 10 13 -5 15 -2 13 16 -6 13 -14
20 -21 16 -16 -11 14 -10 26 3 26 5 0 8 -4 4 -9 -3 -5 0 -13 6 -17 7 -4 9 -3
5 4 -4 7 1 10 14 7 18 -3 25 6 21 28 -1 5 4 5 10 1 8 -5 9 -3 4 6 -5 9 -4 11
4 6 6 -4 9 -12 6 -17 -4 -5 -2 -9 4 -9 5 0 11 6 14 13 3 9 8 8 22 -3 10 -8 16
-10 12 -4 -3 6 0 11 8 11 8 0 15 -5 15 -11 0 -5 7 -1 16 10 14 18 15 18 4 -3
-6 -13 -8 -23 -4 -23 3 0 1 -6 -5 -14 -9 -11 -9 -15 1 -20 7 -3 1 -3 -13 -1
-17 2 -26 -2 -26 -11 0 -7 4 -11 9 -8 4 3 15 -2 24 -10 8 -9 11 -16 5 -16 -5
0 -12 4 -16 10 -3 5 -13 6 -22 3 -13 -5 -15 -2 -9 13 6 16 5 17 -6 6 -11 -11
-9 -17 12 -33 14 -12 18 -18 10 -14 -10 4 -9 2 2 -8 10 -8 15 -17 11 -20 -3
-4 -11 -1 -17 6 -6 7 -10 10 -9 8 2 -2 -2 -10 -9 -18 -8 -11 -7 -12 6 -7 17 6
21 -5 9 -22 -5 -5 0 -1 10 9 16 19 18 17 20 -20 1 -10 6 -21 12 -26 5 -4 -6
-5 -25 -2 -29 4 -32 3 -19 -7 9 -7 16 -21 16 -30 0 -13 -4 -15 -18 -7 -12 6
-16 15 -12 26 4 11 3 14 -6 9 -7 -5 -10 -15 -7 -23 3 -8 2 -12 -3 -9 -7 5 -8
-12 -2 -47 0 -5 13 0 29 11 15 10 34 21 43 25 13 4 16 15 12 49 -3 24 -5 49
-6 56 0 6 -3 12 -7 12 -3 0 -6 9 -7 21 -1 13 3 19 11 16 9 -4 12 9 11 49 -1
30 2 54 7 54 5 0 7 4 3 9 -3 5 -1 12 5 16 7 4 7 12 1 23 -7 12 -5 22 6 34 9
10 11 18 5 18 -6 0 -13 -6 -15 -12 -4 -10 -6 -10 -6 -1 -1 7 7 17 18 22 21 12
36 41 21 41 -6 0 -11 -3 -11 -7z m-40 -65 c-1 -1 3 -13 10 -26 6 -12 8 -22 4
-21 -4 1 -10 0 -13 -1 -3 -1 -17 -3 -32 -4 -22 -2 -26 0 -17 10 6 8 15 11 20
8 5 -3 10 0 10 5 1 6 3 16 4 21 1 6 3 13 4 17 0 3 4 4 7 1 3 -4 5 -8 3 -10z
m-175 -70 c-3 -5 -12 -4 -20 3 -13 11 -19 5 -14 -16 1 -5 -2 -7 -6 -3 -4 4
-14 2 -23 -4 -9 -7 -3 2 13 20 22 24 33 29 43 21 7 -6 10 -15 7 -21z m56 -2
c0 -2 -7 -7 -16 -10 -8 -3 -12 -2 -9 4 6 10 25 14 25 6z m-320 -151 c0 -12
-19 -12 -23 0 -4 9 -1 12 9 8 7 -3 14 -7 14 -8z m151 -52 c-11 -5 -11 -7 0
-14 12 -7 12 -9 0 -9 -8 0 -4 -8 10 -21 22 -19 22 -19 -9 1 -26 18 -31 25 -21
36 6 8 17 14 23 13 6 0 5 -3 -3 -6z m286 -38 c0 -22 -14 -18 -20 4 -3 13 0 18
7 15 7 -3 13 -11 13 -19z m-52 -37 c-19 -11 -30 -5 -21 11 4 6 14 7 22 4 15
-5 14 -7 -1 -15z m-339 -19 c11 -9 11 -15 3 -25 -6 -8 -17 -14 -23 -14 -7 0
-7 3 -1 8 14 10 17 32 5 33 -5 1 -14 2 -19 3 -5 0 -13 4 -17 8 -11 12 37 0 52
-13z m118 -21 c-1 -13 -3 -25 -3 -27 -2 -8 -31 22 -31 33 0 7 4 6 9 -2 7 -11
9 -11 14 2 9 23 14 20 11 -6z m60 -10 c-4 -5 -9 -7 -12 -4 -3 3 -11 1 -19 -5
-8 -8 -13 -8 -13 -1 0 11 16 19 37 19 7 0 10 -4 7 -9z"/>
<path d="M3556 9113 c-6 -14 -5 -15 5 -6 7 7 10 15 7 18 -3 3 -9 -2 -12 -12z"/>
<path d="M6175 9161 c2 -31 8 -32 30 -3 11 16 13 22 4 15 -11 -9 -19 -9 -26
-2 -6 6 -9 3 -8 -10z"/>
<path d="M3040 9166 c0 -2 8 -10 18 -17 15 -13 16 -12 3 4 -13 16 -21 21 -21
13z"/>
<path d="M3250 9165 c0 -6 -10 -15 -22 -20 -13 -6 -24 -16 -24 -22 -1 -7 -3
-15 -4 -18 -1 -3 -3 -8 -4 -12 -1 -5 -5 -15 -11 -23 -7 -12 -6 -13 7 -3 8 7
18 10 22 6 4 -4 9 3 13 15 3 12 9 20 13 17 4 -3 20 5 36 18 16 12 30 21 32 19
2 -2 6 -1 9 2 3 3 -6 3 -20 0 -18 -3 -29 1 -36 13 -6 10 -11 13 -11 8z m9 -41
c-6 -8 -14 -12 -17 -9 -9 8 -32 -17 -25 -28 3 -6 1 -7 -6 -3 -8 5 -9 12 -2 19
5 7 10 17 10 22 1 6 5 10 10 10 5 0 13 3 17 7 13 13 25 -3 13 -18z"/>
<path d="M3495 9070 c-4 -6 -14 -9 -22 -6 -8 3 -11 1 -8 -4 3 -6 1 -10 -5 -10
-7 0 -10 -5 -8 -11 2 -6 8 -9 13 -7 6 2 9 6 8 11 -2 4 2 7 8 7 6 0 8 -7 5 -16
-4 -10 -2 -13 7 -8 7 4 9 3 4 -2 -5 -5 -14 -9 -19 -9 -6 0 -13 -6 -16 -14 -3
-8 0 -11 6 -7 6 3 14 1 18 -5 5 -8 3 -9 -6 -4 -9 6 -11 4 -5 -5 5 -8 4 -11 -1
-7 -14 8 -10 -39 5 -56 8 -11 9 -17 1 -22 -6 -3 -8 -10 -5 -15 3 -5 1 -11 -4
-15 -6 -3 -8 -12 -5 -19 3 -8 1 -17 -4 -20 -5 -3 -9 2 -8 11 0 9 -6 18 -14 21
-13 4 -13 3 -2 -10 9 -11 10 -18 2 -23 -6 -3 -7 -11 -4 -17 4 -6 2 -8 -4 -4
-6 3 -9 16 -7 28 4 17 2 19 -7 10 -7 -7 -16 -12 -22 -12 -5 0 -1 7 10 16 15
13 13 13 -10 -1 -17 -10 -25 -12 -21 -4 5 7 4 10 -3 5 -6 -3 -9 -15 -7 -26 2
-11 -2 -23 -8 -26 -7 -4 -9 -4 -5 1 4 4 3 14 -3 21 -7 8 -7 14 1 19 15 9 -8
37 -24 28 -6 -3 -3 3 7 14 12 14 15 23 7 28 -5 3 -8 10 -6 14 6 10 -25 8 -42
-3 -7 -4 -16 -5 -19 -2 -4 3 -1 6 6 6 7 0 9 5 5 12 -5 7 -11 5 -21 -7 -9 -14
-13 -15 -13 -4 0 12 -2 12 -10 -1 -7 -11 -10 -11 -10 -2 0 7 -4 11 -9 8 -5 -3
-15 2 -22 12 -13 16 -13 16 5 2 16 -12 18 -12 11 -1 -5 10 -4 12 4 7 6 -4 11
-4 10 1 -4 20 2 24 18 12 15 -12 16 -12 10 3 -4 13 -1 16 14 13 11 -2 24 4 31
14 11 18 12 17 32 -3 12 -12 16 -15 10 -6 -26 37 -27 43 -6 31 12 -7 23 -7 26
-2 4 5 1 12 -4 14 -6 3 -5 4 2 3 7 -2 13 -7 14 -12 2 -21 17 -43 26 -38 5 3 1
12 -9 20 -15 11 -15 13 -2 8 10 -3 20 0 24 5 3 6 10 9 15 6 5 -3 11 -1 15 5 3
5 1 10 -5 10 -6 0 -8 6 -5 13 4 6 -2 2 -13 -10 -20 -22 -39 -32 -28 -14 7 11
-18 33 -27 24 -4 -3 -19 -7 -34 -9 -16 -1 -29 -3 -30 -4 -2 -1 -7 -3 -13 -4
-5 0 -9 -5 -7 -11 1 -5 5 -9 10 -7 4 1 7 -2 7 -8 0 -5 -6 -10 -12 -11 -7 0
-21 -2 -30 -5 -10 -2 -26 -6 -35 -8 -10 -3 -20 -5 -23 -6 -3 -1 -9 -1 -15 0
-5 1 -7 -2 -3 -5 4 -4 -3 -16 -15 -26 -12 -10 -17 -18 -10 -19 6 0 15 5 18 10
4 6 15 3 30 -7 12 -10 21 -21 19 -25 -9 -14 14 -17 26 -3 8 10 17 12 29 6 9
-5 21 -11 26 -13 6 -1 9 -10 8 -18 -1 -8 5 -19 13 -23 11 -6 12 -13 3 -29 -13
-24 -1 -41 31 -43 11 -1 18 0 15 3 -7 7 14 42 25 42 6 0 10 -6 10 -13 0 -18
37 -19 44 -1 3 9 11 12 17 8 7 -4 9 -3 6 3 -4 6 3 23 14 37 12 15 19 30 15 33
-3 3 -1 12 6 20 8 11 7 12 -6 7 -16 -6 -22 7 -9 20 12 11 12 40 2 53 -8 9 -5
21 11 43 24 34 33 39 23 13 -6 -16 -5 -16 10 -4 18 15 13 35 -8 27 -7 -2 -17
0 -23 6 -6 6 -12 6 -17 -2z m19 -21 c-3 -5 -10 -7 -15 -3 -5 3 -7 10 -3 15 3
5 10 7 15 3 5 -3 7 -10 3 -15z m-19 -91 c-1 -12 -7 -23 -14 -24 -6 -1 -7 0 -1
3 5 2 8 9 4 14 -3 5 -2 14 1 19 9 15 12 12 10 -12z m-165 -60 c0 -7 -5 -6 -13
1 -8 6 -18 7 -22 3 -5 -4 -5 -2 -1 5 8 14 36 6 36 -9z m156 -36 c-17 -16 -18
-16 -5 5 7 12 15 20 18 17 3 -2 -3 -12 -13 -22z m-142 -68 c3 -8 2 -12 -4 -9
-6 3 -10 10 -10 16 0 14 7 11 14 -7z"/>
<path d="M3064 9029 c-3 -5 0 -8 8 -7 7 2 12 -2 11 -9 -3 -14 20 -11 39 5 8 6
19 8 23 4 5 -4 5 -1 1 6 -6 9 -11 10 -20 3 -7 -6 -16 -8 -20 -4 -11 11 -35 12
-42 2z"/>
<path d="M3446 9013 c-4 -5 -12 -8 -17 -8 -5 0 -9 -4 -10 -10 -1 -18 -20 -34
-34 -28 -8 2 -13 9 -12 15 1 6 -6 12 -16 13 -18 3 -18 3 -1 -16 25 -28 8 -36
-20 -10 l-24 22 -16 -22 c-11 -16 -16 -18 -16 -9 -1 11 -3 10 -11 -3 -8 -13
-14 -15 -23 -8 -9 8 -13 7 -13 -3 0 -14 21 -16 33 -3 4 3 12 3 18 -1 6 -4 22
-7 36 -7 14 -1 25 -6 25 -12 0 -6 3 -15 7 -19 4 -4 3 -13 -3 -20 -7 -9 -6 -15
3 -20 18 -11 38 -14 38 -5 0 4 17 7 38 7 20 -1 36 4 35 9 -1 6 3 15 8 21 6 7
4 15 -5 23 -8 7 -13 28 -11 56 2 49 2 48 -9 38z m-5 -31 c-11 -4 -11 -6 0 -12
10 -7 10 -12 1 -22 -8 -11 -6 -17 9 -26 15 -10 18 -16 10 -26 -6 -7 -9 -15 -6
-17 2 -3 -4 -5 -15 -5 -10 0 -16 4 -14 8 3 4 1 8 -5 8 -5 0 -11 -3 -14 -7 -2
-5 -2 -1 0 7 2 10 -2 8 -12 -4 -8 -11 -15 -14 -15 -7 0 7 -5 9 -10 6 -6 -4 -7
-11 -4 -17 4 -7 2 -8 -5 -4 -9 6 -9 11 -1 21 8 9 8 15 0 20 -6 3 -8 10 -5 15
7 12 -17 26 -42 24 -19 -1 -21 2 -12 18 10 19 11 19 35 -3 30 -28 58 -35 49
-11 -3 9 -3 13 1 9 9 -9 45 23 38 34 -3 5 3 6 12 2 13 -5 14 -8 5 -11z"/>
<path d="M3310 8960 c0 -5 5 -10 11 -10 5 0 7 5 4 10 -3 6 -8 10 -11 10 -2 0
-4 -4 -4 -10z"/>
<path d="M3411 8956 c-6 -7 -8 -16 -4 -19 3 -4 1 -8 -5 -8 -7 -1 -16 -3 -22
-4 -5 -1 -13 -3 -16 -4 -4 0 -1 -8 6 -16 10 -12 16 -13 26 -4 11 9 18 8 29 -1
11 -9 19 -10 26 -3 8 8 5 15 -11 23 -16 9 -19 14 -10 25 6 8 7 16 2 19 -6 3
-15 0 -21 -8z m33 -55 c-2 -3 -12 3 -22 13 -16 17 -16 18 5 5 12 -7 20 -15 17
-18z m-44 13 c0 -8 -19 -13 -24 -6 -3 5 1 9 9 9 8 0 15 -2 15 -3z"/>
<path d="M2947 8925 c3 -8 9 -12 14 -9 12 7 11 11 -5 17 -10 4 -13 1 -9 -8z"/>
<path d="M3166 8915 c-22 -17 -13 -35 16 -30 29 6 34 13 17 30 -12 12 -17 12
-33 0z m22 -11 c-1 -5 -9 -9 -16 -10 -10 -2 -11 1 -1 12 12 14 24 13 17 -2z"/>
<path d="M3066 8901 c-4 -6 -13 -8 -22 -4 -8 3 -14 2 -13 -3 1 -5 1 -11 -1
-14 -11 -30 -7 -51 11 -60 17 -10 21 -8 26 9 5 19 15 25 35 22 4 0 5 12 4 27
-3 27 -29 42 -40 23z m28 -13 c-3 -5 -10 -6 -15 -3 -5 4 -9 1 -9 -4 0 -6 6
-11 12 -11 7 0 2 -7 -10 -16 -13 -9 -19 -20 -15 -27 4 -8 1 -7 -9 1 -16 13
-19 45 -4 40 4 -2 11 4 16 13 5 9 16 16 24 16 8 0 13 -4 10 -9z"/>
<path d="M3043 8853 c0 -9 4 -10 14 -2 7 6 13 12 13 14 0 1 -6 2 -13 2 -8 0
-14 -6 -14 -14z"/>
<path d="M3531 8896 c-8 -10 -9 -16 -1 -21 5 -3 10 -5 11 -3 4 18 7 38 4 38
-1 0 -8 -6 -14 -14z"/>
<path d="M11961 8894 c-113 -30 -186 -84 -220 -164 -29 -68 -27 -156 5 -220
43 -87 91 -114 281 -156 160 -35 217 -59 229 -97 30 -87 -41 -150 -171 -150
-98 0 -168 37 -193 103 -9 24 -12 25 -98 24 -49 -1 -92 -2 -97 -3 -10 -1 2
-48 23 -91 40 -78 122 -138 228 -165 62 -16 174 -21 222 -11 14 3 39 9 55 12
80 17 167 81 204 149 43 82 16 244 -51 300 -58 49 -149 83 -266 100 -163 23
-227 84 -181 172 30 56 171 79 249 41 39 -20 70 -60 70 -93 0 -8 3 -15 8 -16
12 -1 135 -1 163 0 26 1 26 1 16 49 -11 55 -54 121 -101 157 -81 62 -259 90
-375 59z"/>
<path d="M15920 8895 c-197 -52 -308 -217 -308 -458 -1 -168 38 -276 132 -369
74 -74 168 -109 296 -110 202 -2 350 116 404 322 15 56 16 242 2 305 -24 105
-116 231 -201 274 -96 48 -226 62 -325 36z m197 -156 c82 -26 134 -136 138
-289 4 -158 -37 -269 -115 -313 -50 -29 -152 -29 -205 -1 -97 50 -142 219
-111 413 26 161 145 238 293 190z"/>
<path d="M8453 8881 c3 -9 32 -108 65 -221 83 -283 192 -651 198 -672 4 -15
18 -18 79 -18 l73 0 16 53 c9 28 48 164 88 301 40 137 73 245 75 239 9 -26
128 -438 146 -508 l22 -80 78 -3 c42 -2 77 -1 77 1 0 3 38 132 84 288 163 551
179 604 180 619 1 12 -15 15 -87 16 l-87 1 -19 -66 c-11 -36 -40 -140 -66
-231 -25 -91 -52 -185 -59 -210 -8 -25 -17 -58 -21 -75 -8 -34 -7 -38 -80 220
-18 66 -49 174 -68 240 l-34 120 -68 0 -68 0 -49 -175 c-27 -96 -58 -202 -67
-235 -10 -33 -27 -91 -37 -129 -15 -58 -19 -65 -25 -45 -4 13 -26 89 -48 169
-23 80 -48 168 -56 195 -8 28 -25 88 -38 135 l-24 85 -92 1 c-80 0 -92 -2 -88
-15z"/>
<path d="M9770 8433 l0 -463 320 0 320 0 0 80 0 80 -227 2 -228 3 0 110 0 110
195 5 195 5 0 75 0 74 -192 0 c-167 0 -193 2 -194 15 -1 20 -1 193 0 203 1 4
97 7 215 7 118 -1 218 1 223 4 5 3 9 39 8 79 l0 73 -318 1 -317 0 0 -463z"/>
<path d="M10580 8433 l0 -465 248 4 c320 6 379 23 440 127 21 36 25 56 25 120
0 111 -30 161 -125 205 l-46 22 32 18 c83 44 118 102 118 196 1 105 -62 181
-180 216 -45 13 -104 17 -284 19 l-228 2 0 -464z m439 301 c48 -19 72 -53 73
-103 1 -87 -45 -113 -203 -117 l-118 -2 -3 36 c-2 21 -2 74 0 120 l3 82 105 0
c71 0 116 -5 143 -16z m13 -387 c94 -40 97 -166 5 -213 -24 -13 -62 -17 -149
-19 l-117 -1 -3 118 c-2 66 0 122 4 126 14 14 222 6 260 -11z"/>
<path d="M12540 8813 l0 -83 140 0 140 0 0 -380 0 -380 94 0 94 0 0 353 c0
193 1 364 1 380 l1 27 135 0 136 0 -3 83 -3 82 -367 1 -368 0 0 -83z"/>
<path d="M13409 8891 c-1 -3 -1 -9 0 -13 0 -3 1 -149 1 -323 1 -280 3 -324 20
-377 48 -155 154 -220 358 -219 175 1 283 62 334 190 22 54 23 71 26 402 l3
345 -93 0 -93 -1 -5 -330 c-5 -351 -7 -362 -57 -407 -64 -58 -197 -53 -255 10
-43 45 -48 86 -48 417 l0 310 -95 1 c-52 0 -96 -2 -96 -5z"/>
<path d="M14334 8434 l0 -464 172 0 c252 0 353 26 453 116 89 80 135 211 130
373 -6 214 -99 347 -286 406 -77 25 -100 27 -277 30 l-192 3 0 -464z m395 291
c106 -37 158 -121 165 -261 5 -122 -15 -191 -76 -260 -45 -51 -106 -75 -209
-81 l-86 -6 0 309 c0 170 1 312 3 315 7 12 160 0 203 -16z"/>
<path d="M15256 8440 c1 -250 2 -458 3 -462 0 -5 43 -8 94 -8 l92 0 -2 453
c-1 248 -2 457 -2 463 -1 7 -34 11 -93 10 l-93 0 1 -456z"/>
<path d="M8025 8698 c-27 -11 -59 -24 -70 -29 -20 -9 -388 -152 -437 -171 -27
-10 -28 -12 -28 -88 l0 -78 103 -40 c56 -22 185 -72 287 -112 101 -39 188 -74
192 -76 5 -3 8 32 8 78 l0 84 -185 68 c-102 38 -185 72 -185 75 0 4 26 16 58
28 31 11 114 42 184 69 l128 49 0 83 c0 45 -1 82 -2 81 -2 0 -25 -10 -53 -21z"/>
<path d="M16866 8633 l1 -78 74 -28 c41 -15 127 -48 193 -74 l119 -46 -34 -12
c-19 -6 -105 -38 -191 -71 l-158 -59 -1 -32 c-1 -18 -1 -44 -1 -58 0 -72 1
-76 20 -66 9 5 141 57 293 116 l276 107 1 77 1 78 -287 112 c-158 61 -291 111
-297 111 -6 0 -10 -32 -9 -77z"/>
</g>
</svg>
